<?xml version="1.0" standalone="no"?>
<!DOCTYPE svg PUBLIC "-//W3C//DTD SVG 20010904//EN"
 "http://www.w3.org/TR/2001/REC-SVG-20010904/DTD/svg10.dtd">
<svg version="1.0" xmlns="http://www.w3.org/2000/svg"
 width="895.000000pt" height="895.000000pt" viewBox="0 0 895.000000 895.000000"
 preserveAspectRatio="xMidYMid meet">
<metadata>
Created by potrace 1.14, written by Peter Selinger 2001-2017
</metadata>
<g transform="translate(0.000000,895.000000) scale(0.100000,-0.100000)"
fill="#000000" stroke="none">
<path d="M952 6528 l3 -2422 2150 -2 c1183 -1 2163 -5 2178 -7 15 -3 60 -8
100 -12 40 -4 81 -9 92 -11 11 -3 36 -7 55 -10 60 -9 183 -34 225 -46 22 -6
45 -13 50 -14 60 -15 161 -50 163 -56 2 -4 12 -8 21 -8 10 0 40 -11 67 -25 27
-14 54 -25 60 -25 6 0 17 -7 24 -15 7 -8 18 -15 26 -15 14 0 131 -67 152 -87
7 -7 17 -13 21 -13 4 0 16 -8 27 -17 10 -10 42 -36 69 -58 66 -52 195 -186
195 -201 0 -7 4 -14 8 -16 5 -1 27 -30 50 -63 91 -136 163 -313 197 -490 27
-144 28 -471 1 -611 -3 -12 -7 -37 -10 -55 -3 -19 -13 -61 -22 -94 -8 -33 -17
-68 -19 -77 -7 -33 -77 -200 -107 -257 -147 -273 -392 -501 -673 -626 -33 -14
-73 -32 -90 -40 -51 -23 -211 -74 -280 -91 -117 -27 -267 -53 -355 -59 -25 -2
-81 -7 -125 -11 -44 -4 -288 -7 -542 -7 l-462 -1 1 -30 c1 -17 0 -51 0 -76 -2
-41 -3 -122 -2 -160 0 -8 0 -71 -1 -140 0 -69 0 -132 0 -140 1 -8 1 -35 1 -60
0 -25 0 -52 0 -60 0 -8 0 -35 -1 -60 -1 -25 -1 -52 0 -60 1 -8 1 -35 1 -60 0
-25 0 -52 0 -60 0 -8 0 -30 0 -48 l1 -34 607 5 c334 3 627 8 652 11 25 3 65 7
90 10 55 5 108 13 225 32 138 23 147 25 190 36 22 6 48 13 58 15 42 8 53 10
67 16 13 5 57 16 86 22 6 2 59 19 119 40 220 75 426 173 595 284 47 31 90 58
95 60 6 2 12 7 15 11 3 4 37 31 75 61 132 100 260 227 370 364 22 27 48 59 58
69 9 11 17 23 17 27 0 4 6 14 13 21 21 22 87 126 87 137 0 6 4 11 8 11 19 0
207 403 218 467 2 14 23 81 31 103 3 8 7 20 8 25 44 176 67 284 71 330 1 17 3
30 4 30 2 0 10 66 13 120 2 28 6 55 9 60 9 17 7 449 -3 467 -6 10 -5 19 0 23
6 3 6 16 1 33 -5 15 -11 52 -14 82 -7 66 -14 116 -23 150 -3 14 -7 34 -9 45
-6 55 -80 304 -111 375 -8 19 -18 44 -23 55 -18 49 -128 264 -155 305 -16 25
-36 58 -44 73 -8 15 -18 27 -23 27 -4 0 -8 5 -8 10 0 6 -5 16 -10 23 -6 7 -24
30 -40 52 -118 157 -326 363 -464 460 -16 11 -37 28 -48 38 -10 9 -20 17 -23
17 -2 0 -42 24 -88 53 -45 28 -92 57 -102 64 -23 15 -208 108 -215 109 -3 0
-31 12 -64 27 -32 15 -62 27 -67 27 -5 0 -17 4 -27 9 -35 18 -91 39 -122 46
-3 1 -43 13 -90 28 -47 15 -123 36 -170 48 -92 23 -98 24 -180 39 -30 6 -66
12 -80 15 -14 3 -47 8 -75 11 -27 3 -61 7 -75 10 -25 4 -75 10 -185 21 -33 4
-816 8 -1740 10 -931 2 -1682 8 -1685 12 -8 14 -6 2819 3 2827 4 4 319 7 701
7 l694 0 4 50 c1 27 0 54 -4 60 -4 6 -4 15 -2 19 5 7 5 152 4 776 l0 82 -1235
0 -1235 0 2 -2422z"/>
<path d="M4200 8709 c0 -134 -1 -253 0 -264 0 -11 0 -40 0 -65 0 -25 0 -52 0
-60 0 -8 0 -35 -1 -60 -1 -25 -1 -52 0 -60 1 -8 1 -35 1 -60 -1 -66 -1 -70 2
-125 l3 -50 320 -1 c408 -2 463 -6 709 -50 124 -22 419 -143 475 -195 11 -11
21 -17 21 -14 0 23 254 -206 285 -256 6 -9 28 -43 50 -75 81 -118 139 -250
180 -411 35 -140 40 -191 40 -418 -1 -181 -3 -224 -20 -320 -13 -76 -17 -100
-16 -102 0 -4 -29 -107 -36 -123 -3 -8 -8 -24 -10 -34 -2 -10 -12 -38 -23 -62
-10 -24 -16 -44 -12 -44 4 0 2 -4 -5 -8 -6 -4 -14 -19 -18 -34 l-7 -26 79 1
c44 0 85 -3 91 -7 7 -4 12 -3 12 1 0 10 52 9 67 0 5 -3 15 -2 22 2 7 5 30 5
51 1 22 -4 42 -4 46 -1 8 8 64 8 64 0 0 -4 15 -4 33 0 17 4 41 6 52 5 64 -5
81 -6 88 -4 17 6 67 4 67 -1 0 -4 15 -4 33 0 17 4 41 6 52 5 64 -5 81 -6 88
-4 20 6 67 4 67 -3 0 -5 5 -5 11 -1 7 4 42 6 80 6 76 -1 78 1 104 73 10 28 22
54 27 60 4 5 8 17 8 27 0 10 4 26 9 36 11 23 31 86 37 119 3 15 12 59 20 98
16 76 24 139 28 226 2 31 5 61 8 65 11 22 -2 360 -18 479 -11 83 -15 112 -20
135 -3 14 -7 39 -10 55 -8 40 -42 169 -61 225 -8 25 -16 52 -18 60 -9 41 -114
278 -148 335 -33 56 -132 211 -137 215 -3 3 -25 32 -49 65 -76 101 -212 237
-362 360 -109 89 -511 315 -561 315 -7 0 -18 4 -24 9 -8 8 -210 76 -256 87
-10 2 -28 7 -40 10 -13 3 -34 8 -48 11 -14 2 -32 7 -40 10 -16 6 -26 9 -80 17
-34 6 -71 12 -120 22 -14 2 -61 9 -105 14 -44 6 -96 13 -115 16 -19 3 -245 8
-502 11 l-467 5 -1 -243z"/>
<path d="M967 3342 c-16 -3 -17 -118 -17 -1673 l0 -1669 1235 0 1235 0 0 53
c2 404 0 919 -4 925 -3 5 -318 8 -700 8 -456 -1 -697 2 -699 9 -2 6 -3 537 -2
1180 l0 1170 -516 0 c-283 0 -523 -1 -532 -3z"/>
</g>
</svg>
