<svg id="Layer_1" data-name="Layer 1" xmlns="http://www.w3.org/2000/svg" xmlns:xlink="http://www.w3.org/1999/xlink" viewBox="0 0 1000 1000"><defs><style>.cls-1{fill:none;}.cls-2{fill:#919191;}.cls-3{clip-path:url(#clip-path);}</style><clipPath id="clip-path"><path class="cls-1" d="M303.8,409.93,270,499.38h-18.6l33.81-89.45Zm-49.72,0L220.3,499.38h18.6l33.81-89.45Z"/></clipPath></defs><path d="M359.9,477.58H326.35l-7.9,21.76H302l32.9-88.09h16.46l32.9,88.09H367.8Zm-28.78-14.12h24l-11.92-32.9Z"/><path d="M440.48,489a25.43,25.43,0,0,1-21.9,11.78c-18.13,0-30.95-14.64-30.95-33.28s12.82-33.13,31.08-33.13a25.09,25.09,0,0,1,21.76,11.7v-36h14.12v89.39H440.48ZM421.41,448.3a19.24,19.24,0,1,0,19.07,19.41v-.23a18.89,18.89,0,0,0-18.6-19.18Z"/><path d="M470.89,435.6h14.25v70.72c0,14.12-7.65,20.86-18.9,20.86A15.66,15.66,0,0,1,459.9,526V511.62a10.06,10.06,0,0,0,5.05,1.56c4,0,6-2.34,6-6.88Zm7.28-28.23A8.72,8.72,0,0,1,487,416v.16a8.81,8.81,0,1,1-17.61,0v0a8.73,8.73,0,0,1,8.66-8.8Z"/><path d="M542.17,490.4c-3.37,6.09-9.2,10.36-18,10.36-14,0-23.06-10.49-23.06-24.61V435.6h14.25v36.66c0,8.68,5,14.51,13.34,14.51,8,0,13.08-5.39,13.5-13.6V435.6h14.11v63.74H542.17Z"/><path d="M581.67,435.6l17.09,46.12,17.36-46.12h15L606.4,499.34h-15L566.64,435.6Z"/><path d="M641.81,438.33a44.77,44.77,0,0,1,18.22-4c15.81,0,26,7.65,26,25.65v39.38H671.82v-5.87a19.27,19.27,0,0,1-15.55,7.25c-14,0-21.59-9.84-21.59-21,0-11.69,8.94-20.86,21.89-20.86,6.22,0,12,2.7,15.29,6.09V459.7c0-9.06-6.21-12.7-13.34-12.7a31.88,31.88,0,0,0-16.71,5.06ZM660.16,490c6.35,0,11.53-4.5,11.53-10.23s-5.18-10.34-11.53-10.34-11.4,4.67-11.4,10.37S653.94,490,660.16,490Z"/><path d="M716,444.67c3.36-6.21,9.32-10.32,17.87-10.32,14.12,0,23.18,10.37,23.18,24.62v40.41H742.8V462.55c0-8.55-5-14.4-13.49-14.4-8,0-13.09,5.4-13.34,13.61v37.56H701.75V435.6H716Z"/><path d="M777,499.34V447.78H766.26V435.6h11.52V420.71l13.49-3.11v18H802.8v12.18H791.26v51.56Z"/><path d="M369.65,613.88a45.14,45.14,0,0,1-21.5,5.45c-25.79,0-45.34-19.69-45.34-45.47s19.55-45.46,45.34-45.46a45.32,45.32,0,0,1,21.5,5.39v17.1a32.8,32.8,0,0,0-21.5-7.78c-17.23.09-30.19,13.65-30.19,30.75s13,30.7,30.18,30.7a33,33,0,0,0,21.5-7.64Z"/><path d="M387.9,556.9a44.61,44.61,0,0,1,18.26-4c15.81,0,26,7.65,26,25.65v39.35H418V612a19.25,19.25,0,0,1-15.54,7.25c-14,0-21.59-9.84-21.59-21,0-11.69,8.93-20.85,21.89-20.85,6.22,0,12.05,2.7,15.29,6.09v-5.25c0-9.06-6.23-12.7-13.35-12.7a32.07,32.07,0,0,0-16.71,5.06Zm18.4,51.68c6.34,0,11.52-4.5,11.52-10.24S412.64,588,406.3,588s-11.41,4.67-11.41,10.36S400.07,608.58,406.3,608.58Z"/><path d="M461.22,565.32c4.41-8,12.18-12.45,21.77-12.45,18,0,31,14.4,31,33.17s-13,33.29-31,33.29c-9.59,0-17.36-4.5-21.77-11.79v36.89H447V554.17h14.25Zm19,40c10.87,0,18.89-8.81,18.89-19.3s-8-19.18-18.89-19.18a19.24,19.24,0,0,0,0,38.48Z"/><path d="M533.51,525.93a8.73,8.73,0,1,1-.17,0Zm7.12,91.94H526.38v-63.7h14.25Z"/><path d="M563.8,617.87V566.35H553V554.17h11.52v-14.9l13.5-3.1v18h11.52v12.18h-11.5v51.53Z"/><path d="M601.37,556.9a44.64,44.64,0,0,1,18.26-4c15.81,0,26,7.65,26,25.65v39.35H631.42V612a19.25,19.25,0,0,1-15.54,7.25c-14,0-21.63-9.84-21.63-21,0-11.69,8.93-20.85,21.88-20.85a22,22,0,0,1,15.3,6.09v-5.25c0-9.06-6.22-12.7-13.34-12.7a32.07,32.07,0,0,0-16.71,5.06Zm18.39,51.68c6.35,0,11.53-4.5,11.53-10.24S626.11,588,619.76,588s-11.4,4.67-11.4,10.36S613.54,608.58,619.76,608.58Z"/><path d="M674.82,617.87H660.57V528.52h14.25Z"/><path class="cls-2" d="M303.8,409.93,270,499.38h-18.6l33.81-89.45Zm-49.72,0L220.3,499.38h18.6l33.81-89.45Z"/><g class="cls-3"><polygon points="215.4 502.68 277.6 502.68 280.82 475.95 236.64 448.78 215.4 502.68"/></g></svg>