<?xml version="1.0" encoding="utf-8"?>
<!-- Generator: Adobe Illustrator 25.0.1, SVG Export Plug-In . SVG Version: 6.00 Build 0)  -->
<svg version="1.1"
	 id="svg2" xmlns:cc="http://creativecommons.org/ns#" xmlns:dc="http://purl.org/dc/elements/1.1/" xmlns:rdf="http://www.w3.org/1999/02/22-rdf-syntax-ns#" xmlns:svg="http://www.w3.org/2000/svg"
	 xmlns="http://www.w3.org/2000/svg" xmlns:xlink="http://www.w3.org/1999/xlink" x="0px" y="0px" viewBox="0 0 156.1 263.2"
	 style="enable-background:new 0 0 156.1 263.2;" xml:space="preserve">
<style type="text/css">
	.st0{fill:#231F20;}
</style>
<g id="g10" transform="matrix(1.3333333,0,0,-1.3333333,0,266.81333)">
	<g id="g12" transform="scale(0.1)">
		<path id="path14" class="st0" d="M430.4,839.9h222.4c76.6,0,125.2,46.7,125.2,119.5c0,86.9-70.1,111.2-144.8,111.2H430.4V839.9z
			 M430.4,1145.3H608c100.8,0,142,36.4,142,106.5c0,92.5-65.4,105.5-142,105.5H430.4V1145.3z M341.7,1432h241.9
			c58.9,0,136.4,0,176.6-24.3c43.9-26.1,78.4-73.8,78.4-139.2c0-71-37.3-124.2-99-149.4v-1.9c82.2-16.8,127-78.5,127-160.7
			c0-98-70.1-191.4-202.7-191.4H341.7V1432"/>
		<path id="path16" class="st0" d="M586.2,1682.9c-322.6,0-584.3-261.6-584.3-584.3c0-322.7,261.6-584.3,584.3-584.3
			c322.8,0,584.4,261.6,584.4,584.3C1170.6,1421.3,909,1682.9,586.2,1682.9z M1093.5,1098.3c0-280.2-227.1-507.3-507.3-507.3
			C306.1,591.1,79,818.2,79,1098.3c0,280.1,227.1,507.2,507.2,507.2C866.4,1605.5,1093.5,1378.5,1093.5,1098.3"/>
		<path id="path18" class="st0" d="M1169.4,314.4H3.1v76.7h1166.2V314.4"/>
		<path id="path20" class="st0" d="M1101.2,487.1c1.9,4.2,4.4,7.8,7.6,10.9c3.2,3.1,6.9,5.5,11.2,7.3c4.2,1.8,8.8,2.6,13.5,2.6
			c4.9,0,9.3-0.8,13.7-2.6c4.2-1.8,7.8-4.2,10.9-7.3c3.2-3.2,5.8-6.7,7.6-10.9c1.9-4.2,2.8-8.8,2.8-13.8c0-5-0.9-9.6-2.8-13.8
			c-1.8-4.3-4.4-7.9-7.6-11.1c-3.1-3.2-6.8-5.6-10.9-7.4c-4.3-1.7-8.8-2.6-13.7-2.6c-4.7,0-9.2,0.8-13.5,2.6
			c-4.3,1.8-8,4.2-11.2,7.4c-3.2,3.1-5.7,6.8-7.6,11.1c-1.9,4.2-2.7,8.8-2.7,13.8C1098.5,478.2,1099.3,482.8,1101.2,487.1
			 M1107,461.5c1.4-3.7,3.4-6.9,6-9.5c2.5-2.6,5.6-4.8,9.1-6.3c3.5-1.5,7.3-2.2,11.3-2.2c4.1,0,7.9,0.7,11.3,2.2
			c3.5,1.5,6.5,3.6,9.1,6.3c2.5,2.7,4.6,5.8,6,9.5c1.5,3.6,2.2,7.6,2.2,11.7c0,4.3-0.7,8.1-2.2,11.7c-1.4,3.6-3.5,6.7-6,9.4
			c-2.6,2.6-5.7,4.7-9.1,6.2c-3.4,1.5-7.2,2.3-11.3,2.3c-4,0-7.9-0.8-11.3-2.3c-3.5-1.5-6.6-3.6-9.1-6.2c-2.6-2.7-4.6-5.8-6-9.4
			c-1.5-3.6-2.2-7.4-2.2-11.7C1104.8,469.1,1105.5,465.1,1107,461.5 M1135.7,493.6c4.9,0,8.4-1,10.7-2.8c2.3-2,3.5-4.9,3.5-8.8
			c0-3.7-1.1-6.3-3.1-8.1c-2.1-1.7-4.6-2.7-7.7-3l11.6-17.9h-6.7l-11.1,17.5h-6.7v-17.5h-6.4v40.7H1135.7z M1132.9,475.5
			c1.4,0,2.8,0.1,4.1,0.1c1.2,0.1,2.4,0.3,3.4,0.8c1,0.5,1.8,1.2,2.4,2c0.6,0.9,0.8,2.1,0.8,3.8c0,1.3-0.2,2.5-0.8,3.2
			c-0.5,0.9-1.2,1.5-2,1.9c-0.9,0.5-1.7,0.8-2.9,1c-1.1,0.1-2.1,0.2-3.2,0.2h-8.4v-12.9H1132.9"/>
		<path id="path22" class="st0" d="M144.5,1939.8c-2.8,4.4-6.2,8.3-10.3,11.7c-4.1,3.4-8.8,6-14,7.8c-5.2,1.9-10.7,2.8-16.4,2.8
			c-10.4,0-19.3-2-26.6-6.1c-7.3-4-13.2-9.5-17.7-16.2s-7.8-14.5-9.9-23.2c-2.1-8.7-3.1-17.6-3.1-26.9c0-8.8,1-17.5,3.1-25.8
			c2.1-8.4,5.4-15.9,9.9-22.6s10.4-12.1,17.7-16.1c7.3-4,16.1-6,26.6-6c14.2,0,25.3,4.3,33.2,13c8,8.7,12.9,20.1,14.6,34.2h44.9
			c-1.2-13.2-4.2-25.1-9.2-35.7c-4.9-10.6-11.4-19.7-19.5-27.2c-8.1-7.5-17.5-13.2-28.4-17.1c-10.8-3.9-22.7-5.9-35.7-5.9
			c-16.1,0-30.7,2.8-43.6,8.4c-12.9,5.6-23.8,13.3-32.6,23.2c-8.9,9.8-15.7,21.4-20.4,34.7c-4.7,13.3-7.1,27.6-7.1,43
			c0,15.8,2.3,30.4,7.1,43.9c4.7,13.5,11.5,25.3,20.4,35.3c8.8,10,19.7,17.9,32.6,23.6c12.9,5.7,27.4,8.6,43.6,8.6
			c11.6,0,22.6-1.7,32.9-5c10.3-3.4,19.6-8.2,27.8-14.6c8.2-6.4,14.9-14.3,20.2-23.8c5.3-9.5,8.7-20.3,10-32.5h-44.9
			C149,1930.5,147.2,1935.4,144.5,1939.8"/>
		<path id="path24" class="st0" d="M304.3,1902.2c-5,5.5-12.7,8.3-22.9,8.3c-6.7,0-12.3-1.1-16.7-3.4c-4.4-2.3-8-5.1-10.6-8.4
			c-2.7-3.4-4.5-6.9-5.6-10.6c-1.1-3.8-1.7-7.1-1.9-10h68.2C312.8,1888.6,309.3,1896.6,304.3,1902.2L304.3,1902.2z M256.9,1821.8
			c6.3-6.1,15.4-9.1,27.2-9.1c8.5,0,15.8,2.1,21.9,6.3c6.1,4.2,9.8,8.7,11.2,13.4h36.9c-5.9-18.3-15-31.4-27.2-39.3
			c-12.2-7.9-27-11.8-44.3-11.8c-12,0-22.8,1.9-32.5,5.8c-9.6,3.8-17.8,9.3-24.5,16.4c-6.7,7.1-11.9,15.5-15.5,25.4
			c-3.6,9.9-5.5,20.7-5.5,32.5c0,11.4,1.9,22.1,5.6,31.9c3.7,9.9,9.1,18.4,16,25.6c6.9,7.2,15.1,12.8,24.7,17
			c9.5,4.1,20.1,6.2,31.7,6.2c13,0,24.3-2.5,34-7.5c9.6-5,17.6-11.8,23.8-20.2c6.2-8.5,10.7-18.1,13.4-28.9
			c2.7-10.8,3.7-22.2,2.9-34H246.6C247.2,1837.8,250.6,1827.9,256.9,1821.8"/>
		<path id="path26" class="st0" d="M415.5,1937.9v-28.4h0.6c2,4.7,4.6,9.1,8,13.1c3.3,4,7.2,7.5,11.5,10.4c4.3,2.8,9,5.1,13.9,6.6
			c4.9,1.6,10,2.3,15.4,2.3c2.8,0,5.8-0.5,9.2-1.5v-39c-2,0.4-4.3,0.7-7.1,1c-2.8,0.3-5.4,0.4-8,0.4c-7.7,0-14.2-1.3-19.5-3.8
			c-5.3-2.6-9.6-6.1-12.9-10.5c-3.2-4.4-5.6-9.6-6.9-15.5c-1.4-5.9-2.1-12.3-2.1-19.2v-68.8h-42v152.7L415.5,1937.9"/>
		<path id="path28" class="st0" d="M586.3,1937.9v-28h-30.7v-75.6c0-7.1,1.2-11.8,3.6-14.2c2.4-2.4,7.1-3.5,14.2-3.5
			c2.4,0,4.6,0.1,6.8,0.3c2.2,0.2,4.2,0.5,6.2,0.9v-32.5c-3.5-0.6-7.5-1-11.8-1.2c-4.3-0.2-8.6-0.3-12.7-0.3
			c-6.5,0-12.7,0.4-18.5,1.3c-5.8,0.9-10.9,2.6-15.3,5.2c-4.4,2.6-7.9,6.2-10.5,10.9c-2.6,4.7-3.8,10.9-3.8,18.6v90.1h-25.4v28h25.4
			v45.8h41.9v-45.8L586.3,1937.9"/>
		<path id="path30" class="st0" d="M652.6,1937.9v-152.7h-41.9v152.7H652.6z M610.7,1961.5v34.6h41.9v-34.6H610.7"/>
		<path id="path32" class="st0" d="M669.3,1909.8v28h25.1v11.8c0,13.6,4.2,24.7,12.7,33.4c8.5,8.7,21.3,13,38.4,13
			c3.7,0,7.5-0.2,11.2-0.4c3.7-0.3,7.4-0.5,10.9-0.7v-31.3c-4.9,0.6-10,0.9-15.3,0.9c-5.7,0-9.8-1.3-12.2-4
			c-2.5-2.7-3.7-7.1-3.7-13.4v-9.2h28.9v-28h-28.9v-124.6h-42v124.6H669.3"/>
		<path id="path34" class="st0" d="M835.6,1937.9v-152.7h-41.9v152.7H835.6z M793.7,1961.5v34.6h41.9v-34.6H793.7"/>
		<path id="path36" class="st0" d="M949.2,1902.2c-5,5.5-12.7,8.3-22.9,8.3c-6.7,0-12.2-1.1-16.7-3.4c-4.4-2.3-8-5.1-10.6-8.4
			c-2.7-3.4-4.5-6.9-5.6-10.6c-1.1-3.8-1.7-7.1-1.9-10h68.2C957.7,1888.6,954.2,1896.6,949.2,1902.2L949.2,1902.2z M901.8,1821.8
			c6.3-6.1,15.4-9.1,27.2-9.1c8.5,0,15.8,2.1,21.9,6.3c6.1,4.2,9.9,8.7,11.2,13.4h36.9c-5.9-18.3-15-31.4-27.2-39.3
			c-12.2-7.9-27-11.8-44.3-11.8c-12,0-22.9,1.9-32.5,5.8c-9.7,3.8-17.8,9.3-24.5,16.4c-6.7,7.1-11.9,15.5-15.5,25.4
			c-3.6,9.9-5.5,20.7-5.5,32.5c0,11.4,1.9,22.1,5.6,31.9c3.7,9.9,9,18.4,16,25.6c6.9,7.2,15.1,12.8,24.6,17
			c9.6,4.1,20.1,6.2,31.8,6.2c13,0,24.3-2.5,34-7.5c9.7-5,17.6-11.8,23.8-20.2c6.2-8.5,10.7-18.1,13.4-28.9c2.8-10.8,3.8-22.2,3-34
			H891.4C892,1837.8,895.5,1827.9,901.8,1821.8"/>
		<path id="path38" class="st0" d="M1127.1,1880.2c-1.2,5.8-3.2,10.9-6,15.4c-2.8,4.4-6.5,8-11.1,10.8c-4.5,2.8-10.2,4.1-17.1,4.1
			c-6.9,0-12.7-1.4-17.4-4.1c-4.7-2.8-8.5-6.4-11.4-10.9c-2.8-4.5-4.9-9.7-6.2-15.5c-1.3-5.8-1.9-11.9-1.9-18.2
			c0-5.9,0.7-11.8,2-17.7c1.4-5.9,3.6-11.2,6.7-15.8c3.1-4.6,6.9-8.4,11.5-11.2c4.6-2.9,10.2-4.3,16.7-4.3c6.9,0,12.7,1.4,17.3,4.1
			c4.6,2.8,8.3,6.5,11.1,11.1c2.7,4.6,4.7,9.9,5.9,15.8c1.2,5.9,1.8,12,1.8,18.3C1128.9,1868.3,1128.3,1874.3,1127.1,1880.2
			L1127.1,1880.2z M1128.9,1804.7c-4.9-8.3-11.4-14.2-19.4-17.9c-8-3.6-17-5.5-27-5.5c-11.4,0-21.5,2.2-30.1,6.6
			c-8.7,4.4-15.8,10.4-21.4,18c-5.6,7.6-9.9,16.3-12.7,26.1c-2.8,9.8-4.3,20.1-4.3,30.7c0,10.2,1.4,20.1,4.3,29.7
			c2.9,9.6,7.1,18,12.7,25.3c5.6,7.3,12.7,13.1,21.1,17.6c8.5,4.4,18.3,6.6,29.6,6.6c9.1,0,17.7-1.9,25.8-5.8
			c8.2-3.8,14.6-9.5,19.4-17h0.6v76.8h41.9v-210.9h-39.9v19.5L1128.9,1804.7"/>
		<path id="path40" class="st0" d="M105.5,163.9c-2.1,14.8-16.3,26-32.5,26c-29.3,0-40.3-25-40.3-51c0-24.7,11-49.7,40.3-49.7
			c20,0,31.2,13.7,33.7,33.3h31.7c-3.3-37-28.9-60.7-65.4-60.7c-46,0-73,34.3-73,77.1c0,44.1,27,78.4,73,78.4
			c32.7,0,60.1-19.2,64.1-53.5L105.5,163.9"/>
		<path id="path42" class="st0" d="M206.5,84.7c20.2,0,26.2,17.3,26.2,34.3c0,17.3-6,34.5-26.2,34.5c-20,0-26-17.3-26-34.5
			C180.5,101.9,186.5,84.7,206.5,84.7z M206.5,175.7c33.9,0,55.7-22.4,55.7-56.8c0-34.1-21.8-56.6-55.7-56.6
			c-33.7,0-55.5,22.5-55.5,56.6C151,153.3,172.8,175.7,206.5,175.7"/>
		<path id="path44" class="st0" d="M280.5,173h28v-20h0.4c5.4,13.5,20,22.9,34.3,22.9c2.1,0,4.5-0.4,6.5-1v-27.5
			c-2.8,0.6-7.1,1-10.6,1c-21.7,0-29.2-15.6-29.2-34.5V65.5h-29.5L280.5,173"/>
		<path id="path46" class="st0" d="M441.1,118.8c0,17.1-6.9,34.7-25.8,34.7c-19.3,0-25.6-17.3-25.6-34.7c0-17.4,6.7-34.1,25.8-34.1
			C434.9,84.7,441.1,101.3,441.1,118.8z M361.3,172.8h28.1v-13.7h0.4c7.1,11.4,18.7,16.6,32,16.6c33.7,0,48.9-27.2,48.9-57.8
			c0-28.7-15.8-55.6-47.2-55.6c-12.9,0-25.1,5.6-32.2,16.2h-0.4V27.5h-29.5L361.3,172.8"/>
		<path id="path48" class="st0" d="M535.5,84.7c20.2,0,26.2,17.3,26.2,34.3c0,17.3-6,34.5-26.2,34.5c-19.9,0-26-17.3-26-34.5
			C509.5,101.9,515.5,84.7,535.5,84.7z M535.5,175.7c33.9,0,55.8-22.4,55.8-56.8c0-34.1-21.9-56.6-55.8-56.6
			c-33.7,0-55.5,22.5-55.5,56.6C480,153.3,501.8,175.7,535.5,175.7"/>
		<path id="path50" class="st0" d="M609.5,173h28.1v-20h0.4c5.4,13.5,19.9,22.9,34.3,22.9c2.1,0,4.6-0.4,6.5-1v-27.5
			c-2.7,0.6-7.1,1-10.6,1c-21.6,0-29.1-15.6-29.1-34.5V65.5h-29.5L609.5,173"/>
		<path id="path52" class="st0" d="M755.7,118c-5-4.4-15.4-4.6-24.6-6.3c-9.2-1.8-17.5-5-17.5-15.8c0-11,8.5-13.7,18.1-13.7
			c23.1,0,23.9,18.3,23.9,24.7L755.7,118z M687.4,139.8c1.7,27.7,26.4,36,50.6,36c21.4,0,47.2-4.8,47.2-30.5v-56
			c0-9.8,1-19.5,3.8-23.9h-30c-1,3.4-1.9,6.9-2.1,10.4c-9.3-9.8-23-13.3-36.2-13.3c-20.4,0-36.6,10.2-36.6,32.3
			c0,24.3,18.3,30.1,36.6,32.6c18.1,2.7,35,2.1,35,14.2c0,12.7-8.8,14.5-19.2,14.5c-11.2,0-18.5-4.6-19.6-16.2L687.4,139.8"/>
		<path id="path54" class="st0" d="M844.8,172.8h21.6v-19.8h-21.6V99.9c0-10,2.5-12.5,12.5-12.5c3.1,0,6.1,0.2,9.2,0.8V65.1
			c-5-0.8-11.5-1-17.3-1c-18,0-33.9,4.2-33.9,25.6v63.4h-17.9v19.8h17.9v32.2h29.5L844.8,172.8"/>
		<path id="path56" class="st0" d="M888.7,172.8h29.5V65.3h-29.5V172.8z M918.3,189.5h-29.5v24.3h29.5V189.5"/>
		<path id="path58" class="st0" d="M993.6,84.7c20.2,0,26.2,17.3,26.2,34.3c0,17.3-6,34.5-26.2,34.5c-20,0-26-17.3-26-34.5
			C967.6,101.9,973.7,84.7,993.6,84.7z M993.6,175.7c33.9,0,55.8-22.4,55.8-56.8c0-34.1-21.9-56.6-55.8-56.6
			c-33.7,0-55.5,22.5-55.5,56.6C938.1,153.3,960,175.7,993.6,175.7"/>
		<path id="path60" class="st0" d="M1068.5,172.8h28.1v-15h0.6c7.5,12.1,20.4,17.9,32.9,17.9c31.4,0,39.3-17.7,39.3-44.3V65.3h-29.5
			v60.7c0,17.7-5.2,26.4-18.9,26.4c-16,0-22.9-9-22.9-30.8V65.3h-29.5L1068.5,172.8"/>
	</g>
</g>
</svg>
