<?xml version="1.0" encoding="UTF-8" standalone="no"?>
<svg
   xmlns:dc="http://purl.org/dc/elements/1.1/"
   xmlns:cc="http://creativecommons.org/ns#"
   xmlns:rdf="http://www.w3.org/1999/02/22-rdf-syntax-ns#"
   xmlns:svg="http://www.w3.org/2000/svg"
   xmlns="http://www.w3.org/2000/svg"
   viewBox="0 0 128.92 217.37334"
   height="217.37334"
   width="128.92"
   xml:space="preserve"
   id="svg2"
   version="1.1"><metadata
     id="metadata8"><rdf:RDF><cc:Work
         rdf:about=""><dc:format>image/svg+xml</dc:format><dc:type
           rdf:resource="http://purl.org/dc/dcmitype/StillImage" /></cc:Work></rdf:RDF></metadata><defs
     id="defs6" /><g
     transform="matrix(1.3333333,0,0,-1.3333333,0,217.37333)"
     id="g10"><g
       transform="scale(0.1)"
       id="g12"><path
         id="path14"
         style="fill:#ffffff;fill-opacity:1;fill-rule:nonzero;stroke:none"
         d="m 355.531,671.094 h 183.68 c 63.242,0 103.391,38.562 103.391,98.738 0,71.762 -57.872,91.82 -119.629,91.82 H 355.531 Z m 0,252.273 h 146.66 c 83.289,0 117.274,30.09 117.274,87.973 0,76.38 -53.985,87.16 -117.274,87.16 H 355.531 Z M 282.27,1160.23 h 199.812 c 48.633,0 112.668,0 145.84,-20.06 36.269,-21.6 64.785,-60.95 64.785,-114.97 0,-58.63 -30.82,-102.602 -81.758,-123.419 v -1.554 C 678.879,886.352 715.883,835.418 715.883,767.508 715.883,686.531 658,609.359 548.461,609.359 H 282.27 v 550.871" /><path
         id="path16"
         style="fill:#ffffff;fill-opacity:1;fill-rule:nonzero;stroke:none"
         d="M 484.223,1367.45 C 217.699,1367.45 1.60547,1151.36 1.60547,884.797 1.60547,618.262 217.699,402.16 484.223,402.16 c 266.609,0 482.715,216.102 482.715,482.637 0,266.563 -216.106,482.653 -482.715,482.653 z M 903.285,884.57 c 0,-231.425 -187.578,-419.031 -419.062,-419.031 -231.399,0 -418.9847,187.606 -418.9847,419.031 0,231.39 187.5857,418.97 418.9847,418.97 231.484,0 419.062,-187.58 419.062,-418.97" /><path
         id="path18"
         style="fill:#ffffff;fill-opacity:1;fill-rule:nonzero;stroke:none"
         d="M 965.93,237.031 H 2.60156 v 63.321 H 965.93 v -63.321" /><path
         id="path20"
         style="fill:#ffffff;fill-opacity:1;fill-rule:nonzero;stroke:none"
         d="m 909.652,379.66 c 1.551,3.461 3.641,6.399 6.25,9.039 2.625,2.59 5.731,4.512 9.246,6.02 3.489,1.48 7.266,2.152 11.125,2.152 4.012,0 7.723,-0.672 11.278,-2.152 3.437,-1.508 6.465,-3.43 9.043,-6.02 2.609,-2.64 4.765,-5.578 6.25,-9.039 1.594,-3.512 2.316,-7.32 2.316,-11.41 0,-4.141 -0.722,-7.93 -2.316,-11.398 -1.485,-3.563 -3.641,-6.563 -6.25,-9.161 -2.578,-2.652 -5.606,-4.601 -9.043,-6.082 -3.555,-1.429 -7.266,-2.129 -11.278,-2.129 -3.859,0 -7.636,0.7 -11.125,2.129 -3.515,1.481 -6.621,3.43 -9.246,6.082 -2.609,2.598 -4.699,5.598 -6.25,9.161 -1.601,3.468 -2.246,7.257 -2.246,11.398 0,4.09 0.645,7.898 2.246,11.41 m 4.774,-21.109 c 1.125,-3.039 2.785,-5.66 4.953,-7.871 2.09,-2.192 4.617,-3.918 7.547,-5.192 2.844,-1.238 6.035,-1.808 9.347,-1.808 3.387,0 6.524,0.57 9.344,1.808 2.871,1.274 5.371,3 7.551,5.192 2.059,2.211 3.758,4.832 4.93,7.871 1.242,2.961 1.855,6.238 1.855,9.699 0,3.531 -0.613,6.672 -1.855,9.66 -1.172,3.012 -2.871,5.57 -4.93,7.762 -2.18,2.16 -4.68,3.867 -7.551,5.137 -2.82,1.211 -5.957,1.882 -9.344,1.882 -3.312,0 -6.503,-0.671 -9.347,-1.882 -2.93,-1.27 -5.457,-2.977 -7.547,-5.137 -2.168,-2.192 -3.828,-4.75 -4.953,-7.762 -1.238,-2.988 -1.824,-6.129 -1.824,-9.66 0,-3.461 0.586,-6.738 1.824,-9.699 M 938.109,385 c 4.012,0 6.934,-0.801 8.868,-2.352 1.933,-1.648 2.929,-4.019 2.929,-7.25 0,-3.058 -0.898,-5.218 -2.539,-6.687 -1.75,-1.391 -3.82,-2.231 -6.387,-2.512 l 9.629,-14.789 h -5.566 l -9.191,14.481 h -5.516 V 351.41 h -5.293 V 385 Z m -2.316,-14.93 c 1.191,0 2.316,0.059 3.371,0.11 0.977,0.05 1.981,0.281 2.774,0.64 0.859,0.418 1.511,0.961 1.98,1.668 0.5,0.782 0.695,1.762 0.695,3.133 0,1.117 -0.195,2.051 -0.644,2.66 -0.422,0.707 -1.008,1.188 -1.699,1.52 -0.704,0.41 -1.438,0.648 -2.364,0.808 -0.898,0.051 -1.75,0.153 -2.656,0.153 h -6.914 V 370.07 h 5.457" /><path
         id="path22"
         style="fill:#ffffff;fill-opacity:1;fill-rule:nonzero;stroke:none"
         d="m 119.348,1579.67 c -2.293,3.65 -5.125,6.87 -8.543,9.63 -3.43,2.77 -7.278,4.92 -11.5941,6.47 -4.3164,1.54 -8.8164,2.32 -13.5429,2.32 -8.6133,0 -15.9375,-1.67 -21.9532,-5 -6.0156,-3.34 -10.8984,-7.82 -14.6406,-13.42 -3.7383,-5.62 -6.4648,-12 -8.1719,-19.16 -1.7187,-7.16 -2.5585,-14.56 -2.5585,-22.21 0,-7.3 0.8398,-14.42 2.5585,-21.34 1.7071,-6.91 4.4336,-13.14 8.1719,-18.67 3.7422,-5.52 8.625,-9.95 14.6406,-13.29 6.0157,-3.33 13.3399,-5 21.9532,-5 11.7187,0 20.867,3.57 27.449,10.73 6.582,7.16 10.617,16.59 12.071,28.3 h 37.089 c -0.976,-10.89 -3.496,-20.74 -7.558,-29.51 -4.071,-8.79 -9.442,-16.28 -16.102,-22.45 -6.672,-6.19 -14.472,-10.9 -23.429,-14.16 -8.946,-3.24 -18.7778,-4.87 -29.52,-4.87 -13.3399,0 -25.3321,2.32 -35.9883,6.95 -10.6445,4.64 -19.6484,11.02 -26.9531,19.15 -7.3125,8.13 -12.93754,17.68 -16.83597,28.66 -3.91407,10.98 -5.85938,22.82 -5.85938,35.5 0,13.02 1.94531,25.1 5.85938,36.24 3.89843,11.15 9.52347,20.86 16.83597,29.16 7.3047,8.3 16.3086,14.8 26.9531,19.51 10.6562,4.72 22.6484,7.08 35.9883,7.08 9.5976,0 18.672,-1.39 27.207,-4.15 8.535,-2.76 16.18,-6.79 22.93,-12.08 6.746,-5.28 12.324,-11.83 16.707,-19.64 4.406,-7.8 7.168,-16.75 8.301,-26.83 h -37.079 c -0.656,4.39 -2.121,8.41 -4.386,12.08" /><path
         id="path24"
         style="fill:#ffffff;fill-opacity:1;fill-rule:nonzero;stroke:none"
         d="m 251.391,1548.56 c -4.153,4.55 -10.469,6.83 -18.918,6.83 -5.528,0 -10.125,-0.94 -13.778,-2.81 -3.664,-1.87 -6.593,-4.18 -8.789,-6.95 -2.199,-2.77 -3.742,-5.7 -4.64,-8.79 -0.887,-3.09 -1.426,-5.84 -1.582,-8.29 h 56.367 c -1.629,8.79 -4.52,15.46 -8.66,20.01 z m -39.161,-66.37 c 5.196,-5.03 12.684,-7.55 22.442,-7.55 7,0 13.016,1.75 18.055,5.24 5.039,3.5 8.125,7.19 9.277,11.1 h 30.5 c -4.895,-15.13 -12.375,-25.95 -22.453,-32.45 -10.086,-6.51 -22.285,-9.76 -36.602,-9.76 -9.922,0 -18.867,1.59 -26.836,4.75 -7.968,3.18 -14.715,7.69 -20.254,13.55 -5.527,5.85 -9.804,12.85 -12.812,20.98 -3.008,8.13 -4.512,17.08 -4.512,26.84 0,9.43 1.555,18.22 4.641,26.35 3.086,8.14 7.488,15.17 13.172,21.1 5.703,5.93 12.492,10.61 20.382,14.03 7.879,3.42 16.622,5.12 26.219,5.12 10.735,0 20.09,-2.07 28.059,-6.22 7.969,-4.15 14.519,-9.72 19.637,-16.71 5.128,-7 8.828,-14.97 11.105,-23.91 2.266,-8.95 3.086,-18.3 2.43,-28.06 h -90.996 c 0.488,-11.22 3.332,-19.36 8.546,-24.4" /><path
         id="path26"
         style="fill:#ffffff;fill-opacity:1;fill-rule:nonzero;stroke:none"
         d="m 343.234,1578.07 v -23.42 h 0.489 c 1.632,3.91 3.828,7.53 6.593,10.86 2.762,3.33 5.938,6.18 9.512,8.54 3.574,2.36 7.402,4.19 11.473,5.49 4.062,1.3 8.293,1.95 12.687,1.95 2.274,0 4.785,-0.41 7.567,-1.22 v -32.2 c -1.641,0.33 -3.582,0.61 -5.867,0.86 -2.278,0.23 -4.473,0.36 -6.583,0.36 -6.347,0 -11.71,-1.06 -16.105,-3.18 -4.395,-2.1 -7.93,-4.99 -10.613,-8.65 -2.676,-3.66 -4.602,-7.93 -5.735,-12.81 -1.132,-4.88 -1.699,-10.17 -1.699,-15.86 v -56.85 h -34.656 v 126.13 h 32.937" /><path
         id="path28"
         style="fill:#ffffff;fill-opacity:1;fill-rule:nonzero;stroke:none"
         d="m 484.27,1578.07 v -23.16 h -25.391 v -62.46 c 0,-5.87 0.988,-9.77 2.941,-11.72 1.953,-1.95 5.86,-2.93 11.7,-2.93 1.953,0 3.828,0.08 5.613,0.25 1.789,0.16 3.496,0.4 5.137,0.73 v -26.84 c -2.93,-0.49 -6.2,-0.81 -9.774,-0.97 -3.566,-0.17 -7.062,-0.26 -10.488,-0.26 -5.363,0 -10.461,0.37 -15.254,1.11 -4.797,0.73 -9.016,2.15 -12.676,4.27 -3.664,2.12 -6.555,5.12 -8.672,9.03 -2.121,3.9 -3.156,9.02 -3.156,15.36 v 74.43 h -20.984 v 23.16 h 20.984 v 37.83 h 34.629 v -37.83 h 25.391" /><path
         id="path30"
         style="fill:#ffffff;fill-opacity:1;fill-rule:nonzero;stroke:none"
         d="m 539.094,1578.07 v -126.13 h -34.649 v 126.13 z m -34.649,19.53 v 28.54 h 34.649 v -28.54 h -34.649" /><path
         id="path32"
         style="fill:#ffffff;fill-opacity:1;fill-rule:nonzero;stroke:none"
         d="m 552.824,1554.91 v 23.16 h 20.735 v 9.77 c 0,11.21 3.496,20.41 10.496,27.56 6.984,7.16 17.57,10.74 31.718,10.74 3.079,0 6.184,-0.12 9.278,-0.37 3.066,-0.24 6.086,-0.45 9.004,-0.61 v -25.86 c -4.063,0.49 -8.289,0.74 -12.676,0.74 -4.715,0 -8.094,-1.1 -10.117,-3.29 -2.032,-2.2 -3.047,-5.9 -3.047,-11.11 v -7.57 h 23.898 v -23.16 h -23.898 v -102.97 h -34.656 v 102.97 h -20.735" /><path
         id="path34"
         style="fill:#ffffff;fill-opacity:1;fill-rule:nonzero;stroke:none"
         d="m 690.246,1578.07 v -126.13 h -34.648 v 126.13 z m -34.648,19.53 v 28.54 h 34.648 v -28.54 h -34.648" /><path
         id="path36"
         style="fill:#ffffff;fill-opacity:1;fill-rule:nonzero;stroke:none"
         d="m 784.047,1548.56 c -4.141,4.55 -10.461,6.83 -18.906,6.83 -5.539,0 -10.118,-0.94 -13.782,-2.81 -3.671,-1.87 -6.589,-4.18 -8.789,-6.95 -2.195,-2.77 -3.738,-5.7 -4.636,-8.79 -0.891,-3.09 -1.418,-5.84 -1.575,-8.29 h 56.34 c -1.601,8.79 -4.492,15.46 -8.652,20.01 z m -39.16,-66.37 c 5.215,-5.03 12.703,-7.55 22.441,-7.55 7,0 13.016,1.75 18.067,5.24 5.039,3.5 8.132,7.19 9.265,11.1 h 30.488 c -4.863,-15.13 -12.351,-25.95 -22.421,-32.45 -10.118,-6.51 -22.293,-9.76 -36.61,-9.76 -9.933,0 -18.879,1.59 -26.836,4.75 -7.968,3.18 -14.726,7.69 -20.254,13.55 -5.527,5.85 -9.797,12.85 -12.812,20.98 -3,8.13 -4.512,17.08 -4.512,26.84 0,9.43 1.563,18.22 4.637,26.35 3.098,8.14 7.473,15.17 13.183,21.1 5.684,5.93 12.473,10.61 20.364,14.03 7.89,3.42 16.629,5.12 26.23,5.12 10.731,0 20.098,-2.07 28.067,-6.22 7.968,-4.15 14.511,-9.72 19.636,-16.71 5.118,-7 8.821,-14.97 11.086,-23.91 2.285,-8.95 3.094,-18.3 2.449,-28.06 h -90.996 c 0.481,-11.22 3.332,-19.36 8.528,-24.4" /><path
         id="path38"
         style="fill:#ffffff;fill-opacity:1;fill-rule:nonzero;stroke:none"
         d="m 931.039,1530.38 c -0.969,4.8 -2.637,9.03 -4.992,12.69 -2.352,3.66 -5.41,6.62 -9.149,8.91 -3.742,2.27 -8.457,3.41 -14.152,3.41 -5.683,0 -10.496,-1.14 -14.394,-3.41 -3.907,-2.29 -7.039,-5.29 -9.403,-9.04 -2.355,-3.74 -4.054,-8.01 -5.109,-12.8 -1.074,-4.8 -1.582,-9.8 -1.582,-15.01 0,-4.87 0.558,-9.75 1.691,-14.64 1.141,-4.88 2.977,-9.23 5.496,-13.05 2.532,-3.83 5.684,-6.91 9.524,-9.27 3.816,-2.37 8.418,-3.53 13.777,-3.53 5.695,0 10.449,1.12 14.277,3.41 3.821,2.27 6.875,5.33 9.153,9.15 2.265,3.82 3.894,8.17 4.863,13.05 0.984,4.88 1.473,9.92 1.473,15.12 0,5.2 -0.489,10.21 -1.473,15.01 z m 1.473,-62.33 c -4.071,-6.84 -9.395,-11.76 -15.985,-14.76 -6.582,-3.01 -14.015,-4.52 -22.316,-4.52 -9.453,0 -17.734,1.82 -24.883,5.49 -7.156,3.65 -13.066,8.62 -17.695,14.88 -4.649,6.25 -8.145,13.46 -10.496,21.59 -2.356,8.13 -3.528,16.59 -3.528,25.37 0,8.46 1.172,16.63 3.528,24.53 2.351,7.89 5.847,14.83 10.496,20.86 4.629,6 10.449,10.85 17.441,14.51 6.992,3.67 15.129,5.49 24.406,5.49 7.481,0 14.598,-1.58 21.329,-4.75 6.765,-3.17 12.089,-7.85 15.996,-14.03 h 0.488 v 63.43 h 34.637 v -174.2 H 933 v 16.11 h -0.488" /><path
         id="path40"
         style="fill:#ffffff;fill-opacity:1;fill-rule:nonzero;stroke:none"
         d="m 87.1133,112.699 c -1.75,12.199 -13.4297,21.481 -26.8281,21.481 -24.2071,0 -33.3282,-20.629 -33.3282,-42.1097 0,-20.4219 9.1211,-41.0508 33.3282,-41.0508 16.4843,0 25.8125,11.3399 27.8242,27.5 H 114.27 C 111.508,47.9297 90.3633,28.3516 60.2852,28.3516 c -37.9571,0 -60.28129375,28.3476 -60.28129375,63.7187 0,36.4297 22.32419375,64.7887 60.28129375,64.7887 26.9843,0 49.6488,-15.82 52.9298,-44.16 H 87.1133" /><path
         id="path42"
         style="fill:#ffffff;fill-opacity:1;fill-rule:nonzero;stroke:none"
         d="m 170.578,47.2383 c 16.66,0 21.633,14.2734 21.633,28.3437 0,14.2578 -4.973,28.52 -21.633,28.52 -16.484,0 -21.504,-14.2622 -21.504,-28.52 0,-14.0703 5.02,-28.3437 21.504,-28.3437 z m 0,75.2417 c 28.008,0 46.047,-18.531 46.047,-46.898 0,-28.1718 -18.039,-46.7226 -46.047,-46.7226 -27.84,0 -45.867,18.5508 -45.867,46.7226 0,28.367 18.027,46.898 45.867,46.898" /><path
         id="path44"
         style="fill:#ffffff;fill-opacity:1;fill-rule:nonzero;stroke:none"
         d="m 231.672,120.238 h 23.164 v -16.476 h 0.363 c 4.442,11.148 16.485,18.879 28.367,18.879 1.711,0 3.75,-0.332 5.332,-0.84 V 99.1211 c -2.273,0.5078 -5.859,0.8398 -8.769,0.8398 -17.891,0 -24.09,-12.8906 -24.09,-28.5117 v -40.039 h -24.367 v 88.8278" /><path
         id="path46"
         style="fill:#ffffff;fill-opacity:1;fill-rule:nonzero;stroke:none"
         d="m 364.379,75.4102 c 0,14.1211 -5.676,28.6918 -21.301,28.6918 -15.976,0 -21.121,-14.2622 -21.121,-28.6918 0,-14.4219 5.496,-28.1719 21.297,-28.1719 15.996,0 21.125,13.75 21.125,28.1719 z M 298.422,120.09 h 23.203 v -11.328 h 0.332 c 5.828,9.429 15.449,13.718 26.434,13.718 27.863,0 40.371,-22.4917 40.371,-47.7417 0,-23.7188 -13.028,-45.8789 -38.985,-45.8789 -10.644,0 -20.769,4.6406 -26.609,13.4023 h -0.363 V 0 h -24.383 v 120.09" /><path
         id="path48"
         style="fill:#ffffff;fill-opacity:1;fill-rule:nonzero;stroke:none"
         d="m 442.309,47.2383 c 16.668,0 21.66,14.2734 21.66,28.3437 0,14.2578 -4.992,28.52 -21.66,28.52 -16.465,0 -21.465,-14.2622 -21.465,-28.52 0,-14.0703 5,-28.3437 21.465,-28.3437 z m 0,75.2417 c 28.015,0 46.082,-18.531 46.082,-46.898 0,-28.1718 -18.067,-46.7226 -46.082,-46.7226 -27.813,0 -45.852,18.5508 -45.852,46.7226 0,28.367 18.039,46.898 45.852,46.898" /><path
         id="path50"
         style="fill:#ffffff;fill-opacity:1;fill-rule:nonzero;stroke:none"
         d="m 503.441,120.238 h 23.192 v -16.476 h 0.371 c 4.434,11.148 16.465,18.879 28.32,18.879 1.711,0 3.789,-0.332 5.332,-0.84 V 99.1211 c -2.234,0.5078 -5.847,0.8398 -8.758,0.8398 -17.871,0 -24.062,-12.8906 -24.062,-28.5117 v -40.039 h -24.395 v 88.8278" /><path
         id="path52"
         style="fill:#ffffff;fill-opacity:1;fill-rule:nonzero;stroke:none"
         d="m 624.203,74.7383 c -4.152,-3.6289 -12.726,-3.7578 -20.293,-5.1563 -7.558,-1.5234 -14.433,-4.1328 -14.433,-13.0625 0,-9.1093 7.05,-11.3203 14.968,-11.3203 19.043,0 19.758,15.0899 19.758,20.4297 z m -56.387,18.0312 c 1.395,22.8595 21.825,29.7105 41.758,29.7105 17.684,0 39.012,-3.941 39.012,-25.23 V 51.0195 c 0,-8.0781 0.84,-16.1406 3.117,-19.7578 h -24.777 c -0.828,2.7696 -1.551,5.668 -1.738,8.6094 -7.704,-8.0898 -19.032,-11.0117 -29.864,-11.0117 -16.844,0 -30.234,8.4101 -30.234,26.6523 0,20.0703 15.148,24.8789 30.234,26.9492 14.953,2.25 28.879,1.7188 28.879,11.6993 0,10.4608 -7.258,12.0118 -15.82,12.0118 -9.289,0 -15.285,-3.774 -16.164,-13.4025 h -24.403" /><path
         id="path54"
         style="fill:#ffffff;fill-opacity:1;fill-rule:nonzero;stroke:none"
         d="m 697.855,120.09 h 17.879 V 103.77 H 697.855 V 59.8086 c 0,-8.2695 2.079,-10.3281 10.301,-10.3281 2.59,0 5,0.1797 7.578,0.6679 V 31.0781 c -4.148,-0.6797 -9.48,-0.8476 -14.285,-0.8476 -14.902,0 -27.969,3.4609 -27.969,21.1484 V 103.77 h -14.796 v 16.32 h 14.796 v 26.64 h 24.375 v -26.64" /><path
         id="path56"
         style="fill:#ffffff;fill-opacity:1;fill-rule:nonzero;stroke:none"
         d="m 734.133,120.09 h 24.406 V 31.2617 h -24.406 z m 24.406,13.75 h -24.406 v 20.101 h 24.406 V 133.84" /><path
         id="path58"
         style="fill:#ffffff;fill-opacity:1;fill-rule:nonzero;stroke:none"
         d="m 820.766,47.2383 c 16.699,0 21.66,14.2734 21.66,28.3437 0,14.2578 -4.961,28.52 -21.66,28.52 -16.485,0 -21.477,-14.2622 -21.477,-28.52 0,-14.0703 4.992,-28.3437 21.477,-28.3437 z m 0,75.2417 c 28.015,0 46.093,-18.531 46.093,-46.898 0,-28.1718 -18.078,-46.7226 -46.093,-46.7226 -27.813,0 -45.832,18.5508 -45.832,46.7226 0,28.367 18.019,46.898 45.832,46.898" /><path
         id="path60"
         style="fill:#ffffff;fill-opacity:1;fill-rule:nonzero;stroke:none"
         d="m 882.609,120.09 h 23.204 v -12.379 h 0.507 c 6.192,9.969 16.836,14.769 27.16,14.769 25.938,0 32.45,-14.589 32.45,-36.5816 V 31.2617 h -24.383 v 50.168 c 0,14.6016 -4.309,21.8403 -15.625,21.8403 -13.254,0 -18.918,-7.3989 -18.918,-25.4614 V 31.2617 H 882.609 V 120.09" /></g></g></svg>