<svg xmlns="http://www.w3.org/2000/svg" viewBox="0 0 110 110"><defs><style>.cls-1{fill:#fff;}</style></defs><g id="Drag"><circle cx="55" cy="55" r="55"/><path class="cls-1" d="M23.21,58.21h-1V49.76h1.4l2.95,7.14,2.94-7.14h1.38v8.45h-1V51.37L27,58.21h-.91l-2.86-6.84Z"/><path class="cls-1" d="M34.78,58.4A2.94,2.94,0,0,1,33.21,58a2.8,2.8,0,0,1-1.07-1.14,3.82,3.82,0,0,1,0-3.32,2.9,2.9,0,0,1,1.07-1.15A3,3,0,0,1,34.78,52a3,3,0,0,1,1.56.41,2.8,2.8,0,0,1,1.06,1.15,3.82,3.82,0,0,1,0,3.32A2.72,2.72,0,0,1,36.34,58,2.89,2.89,0,0,1,34.78,58.4Zm0-.86a1.82,1.82,0,0,0,1.74-1.11,3,3,0,0,0,.24-1.24,3,3,0,0,0-.24-1.25,2,2,0,0,0-.69-.82,2.06,2.06,0,0,0-2.11,0,2,2,0,0,0-.7.82,3,3,0,0,0-.24,1.25A3,3,0,0,0,33,56.43a1.89,1.89,0,0,0,.7.82A1.93,1.93,0,0,0,34.78,57.54Z"/><path class="cls-1" d="M40.83,58.4A2.76,2.76,0,0,1,39,57.83a2.21,2.21,0,0,1-.78-1.49h1a1.38,1.38,0,0,0,.49.92,1.75,1.75,0,0,0,1.11.34,1.7,1.7,0,0,0,1.07-.3.92.92,0,0,0,.39-.76.66.66,0,0,0-.24-.55,2.67,2.67,0,0,0-.91-.35l-.24,0-.26-.06a5.92,5.92,0,0,1-1.23-.36,1.58,1.58,0,0,1-.71-.54,1.44,1.44,0,0,1-.25-.86,1.57,1.57,0,0,1,.3-1,1.82,1.82,0,0,1,.81-.62A3,3,0,0,1,40.77,52a2.49,2.49,0,0,1,1.64.49,2.07,2.07,0,0,1,.72,1.39h-1a1.15,1.15,0,0,0-.42-.79,1.46,1.46,0,0,0-.95-.29,1.56,1.56,0,0,0-1,.27.79.79,0,0,0-.36.67.58.58,0,0,0,.31.54,4.09,4.09,0,0,0,1.08.35l.1,0,.11,0a6.13,6.13,0,0,1,1.28.36,1.66,1.66,0,0,1,.73.55,1.65,1.65,0,0,1,.24.93,1.77,1.77,0,0,1-.29,1,2,2,0,0,1-.86.68A3.38,3.38,0,0,1,40.83,58.4Z"/><path class="cls-1" d="M46.06,58.31a1.41,1.41,0,0,1-1.61-1.56V53h-1v-.84h1V50.63h1v1.53h1.34V53H45.44v3.7a.71.71,0,0,0,.2.57.94.94,0,0,0,.64.17,2.3,2.3,0,0,0,.48,0v.83A3.05,3.05,0,0,1,46.06,58.31Z"/><path class="cls-1" d="M51.17,58.21h-1V49.75h3.69a2.67,2.67,0,0,1,2,.69,2.47,2.47,0,0,1,.69,1.82,2.4,2.4,0,0,1-.69,1.8,2.67,2.67,0,0,1-2,.68H51.17Zm0-4.37h2.6A1.68,1.68,0,0,0,55,53.42a1.79,1.79,0,0,0,0-2.33,1.64,1.64,0,0,0-1.24-.43h-2.6Z"/><path class="cls-1" d="M59.81,58.4A3,3,0,0,1,58.23,58a2.78,2.78,0,0,1-1.06-1.14,3.73,3.73,0,0,1,0-3.32,2.87,2.87,0,0,1,1.06-1.15A3,3,0,0,1,59.81,52a3,3,0,0,1,1.55.41,2.83,2.83,0,0,1,1.07,1.15,3.82,3.82,0,0,1,0,3.32A2.74,2.74,0,0,1,61.36,58,2.87,2.87,0,0,1,59.81,58.4Zm0-.86a1.91,1.91,0,0,0,1-.29,1.87,1.87,0,0,0,.69-.82,3,3,0,0,0,.24-1.24,3,3,0,0,0-.24-1.25,1.82,1.82,0,0,0-1.73-1.11,2,2,0,0,0-1.07.29,1.86,1.86,0,0,0-.69.82,2.85,2.85,0,0,0-.25,1.25,2.8,2.8,0,0,0,.25,1.24,1.81,1.81,0,0,0,.69.82A2,2,0,0,0,59.81,57.54Z"/><path class="cls-1" d="M64.65,60.49h-1V52.16h1v1a2.64,2.64,0,0,1,.92-.87A2.48,2.48,0,0,1,66.81,52a2.69,2.69,0,0,1,1.47.41,2.74,2.74,0,0,1,1,1.15,3.91,3.91,0,0,1,0,3.32,2.65,2.65,0,0,1-1,1.14,2.61,2.61,0,0,1-1.48.41,2.44,2.44,0,0,1-1.23-.31,2.7,2.7,0,0,1-.92-.86Zm2-3a1.92,1.92,0,0,0,1.05-.29,1.88,1.88,0,0,0,.7-.82,3,3,0,0,0,.25-1.24,2.57,2.57,0,0,0-.54-1.72,1.84,1.84,0,0,0-1.46-.64,1.8,1.8,0,0,0-1.44.64,2.57,2.57,0,0,0-.54,1.72,3,3,0,0,0,.25,1.24,1.85,1.85,0,0,0,1.73,1.11Z"/><path class="cls-1" d="M72.62,58.4A2.05,2.05,0,0,1,71,57.75a2.62,2.62,0,0,1-.58-1.8V52.16h1v3.67a2,2,0,0,0,.36,1.28,1.39,1.39,0,0,0,1.09.43,1.58,1.58,0,0,0,.92-.27,1.68,1.68,0,0,0,.63-.75,2.73,2.73,0,0,0,.23-1.14V52.16h1v6.05h-1v-.9a2.22,2.22,0,0,1-.84.8A2.33,2.33,0,0,1,72.62,58.4Z"/><path class="cls-1" d="M77.78,58.21h-1v-8.7h1Z"/><path class="cls-1" d="M80.64,58.37a2.38,2.38,0,0,1-1.12-.24,1.55,1.55,0,0,1-.69-.62,1.69,1.69,0,0,1-.22-.86,1.53,1.53,0,0,1,.56-1.25,3.4,3.4,0,0,1,1.66-.63l1.25-.18a1,1,0,0,0,.5-.18.49.49,0,0,0,.12-.36,1.14,1.14,0,0,0-.39-.89,1.71,1.71,0,0,0-1.11-.34,1.53,1.53,0,0,0-1,.33,1.26,1.26,0,0,0-.45.88h-1a2.24,2.24,0,0,1,.39-1.12A2,2,0,0,1,80,52.2,3.26,3.26,0,0,1,81.24,52a3.12,3.12,0,0,1,1.31.26,2.09,2.09,0,0,1,.84.74,2.13,2.13,0,0,1,.28,1.11v4.13h-1V57a2.4,2.4,0,0,1-.84,1A2.18,2.18,0,0,1,80.64,58.37Zm.2-.82a1.68,1.68,0,0,0,1-.28,1.94,1.94,0,0,0,.66-.78,2.7,2.7,0,0,0,.23-1.12V55.1a1.42,1.42,0,0,1-.26.1,2.73,2.73,0,0,1-.37.07l-1,.16A2.48,2.48,0,0,0,80,55.8a.85.85,0,0,0-.38.77.88.88,0,0,0,.33.72A1.45,1.45,0,0,0,80.84,57.55Z"/><path class="cls-1" d="M85.81,58.21h-1V52.16h1v1a2,2,0,0,1,.67-.79,1.77,1.77,0,0,1,1-.29h.16l.16,0v.93l-.33,0a1.53,1.53,0,0,0-1.21.53A2.15,2.15,0,0,0,85.81,55Z"/></g></svg>