<?xml version="1.0" encoding="utf-8"?>
<!-- Generator: Adobe Illustrator 25.2.3, SVG Export Plug-In . SVG Version: 6.00 Build 0)  -->
<svg version="1.1" id="Layer_1" xmlns="http://www.w3.org/2000/svg" xmlns:xlink="http://www.w3.org/1999/xlink" x="0px" y="0px"
	 viewBox="0 0 181 204" style="enable-background:new 0 0 181 204;" xml:space="preserve">
<style type="text/css">
	.st0{fill:#FFFFFF;}
</style>
<path class="st0" d="M180.2,86.2c-1.3-2.6-4-4.5-6.9-4.8l3-3.8c1.5-2,2-4.3,1.5-6.5c-0.4-2-1.6-3.7-3.3-5c-1.5-1.1-3.2-1.7-5.1-1.8
	c1.4-4.1-0.2-7.9-3-9.9c-3.3-2.4-8.5-2.5-12.2,1.8c-0.4-1.4-1.2-2.7-2.3-3.7c-3.2-2.9-8.7-3.4-13.3,1.6l-19.5,24.5
	c-0.7,0.9-1.5,1.8-2.1,2.6c-3,3.7-5.4,6.6-7.7,8.3c2.1-5.2,1.5-10.1-1.6-12.5c-4-3-10.4-1.2-17.3,4.8c-6.9-6-13.3-7.8-17.3-4.8
	c-3.3,2.5-3.8,7.6-1.4,13c-2.6-1.6-5.2-4.7-8.5-8.8c-0.7-0.8-1.4-1.7-2.1-2.6L41.3,54c-2.1-2.2-4.5-3.5-7-3.7
	c-2.3-0.2-4.5,0.6-6.2,2.2c-1.1,1-1.9,2.3-2.3,3.7c-2.3-2.5-5.2-3.8-8.1-3.4c-3,0.3-5.7,2.3-6.9,5.1c-0.9,2-0.9,4.3-0.2,6.5
	c-1.8,0-3.6,0.6-5.1,1.8c-1.7,1.3-2.9,3.1-3.3,5c-0.5,2.3,0,4.5,1.6,6.6l3,3.7c-3,0.3-5.6,2.2-6.9,4.8c-1.2,2.5-1,5.4,0.8,8
	c0.7,0.9,17,22.3,17.8,23.2l1.8,2.3c12,15.4,26.9,34.5,44.4,34.6c0,0,0,0,0.1,0c8.8,0,17.3-4.9,25.4-14.5
	c8.1,9.6,16.7,14.5,25.4,14.5c0,0,0,0,0.1,0c17.5-0.1,32.4-19.2,44.4-34.6l1.8-2.3c0.7-0.9,17.1-22.3,17.8-23.3
	C181.2,91.6,181.5,88.7,180.2,86.2z M105.3,80c1.9,1.5,1.9,5.3-0.1,9.3c-0.3,0.6-0.6,1.1-1,1.7c-2.8-0.5-6.4-2.7-11.1-6.7
	C99.3,79,103.5,78.6,105.3,80z M101.9,94.3c-2.5,3.3-5.6,6.6-8.1,9.2c-1.4,1.5-2.6,2.7-3.5,3.8c-0.9-1.1-2.1-2.3-3.5-3.8
	c-2.5-2.7-5.6-6-8.1-9.3c3.2-1,6.9-3.4,11.6-7.5C95,90.9,98.7,93.3,101.9,94.3z M75.3,80c0.5-0.4,1.3-0.7,2.3-0.7
	c2.2,0,5.6,1.3,9.9,4.9c-4.7,4-8.3,6.2-11.1,6.7c-0.4-0.6-0.7-1.2-1-1.7C73.4,85.3,73.3,81.5,75.3,80z M88.4,135.6
	c-0.1,0.1-0.1,0.2-0.2,0.3c-7.8,9.8-15.6,14.6-23.7,14.6c0,0,0,0-0.1,0c-15.7,0-30-18.4-41.4-33.1l-1.8-2.3
	C20.6,114.2,3.7,92.1,3.6,92c-1.8-2.6-0.4-4.9,1.2-6c1.9-1.3,4.7-1.4,6.6,1.4l18.4,22.7c0.7,0.8,1.9,0.9,2.7,0.3
	c0.8-0.7,0.9-1.9,0.3-2.7L6.7,75.4c-0.8-1.1-1.1-2.3-0.9-3.4c0.2-1,0.9-2.1,1.9-2.8c1-0.7,2.1-1.1,3.2-1c1.2,0.1,2.2,0.7,3.1,1.9
	l24.6,29.3c0.7,0.8,1.9,0.9,2.7,0.2c0.8-0.7,0.9-1.9,0.2-2.7L15.4,65.4c-1.5-2.1-1.9-4.3-1.1-6.1c0.7-1.5,2.1-2.6,3.8-2.8
	c2-0.2,3.9,0.8,5.5,3l3.6,4.5c0.4,0.5,0.8,1.1,1.3,1.6l23,28.8c0.7,0.8,1.9,1,2.7,0.3c0.8-0.7,1-1.9,0.3-2.7L30.4,61.9
	c-0.7-1.1-1.1-2.3-1.1-3.4c0-1.3,0.5-2.4,1.4-3.3c0.9-0.8,2.1-1.3,3.4-1.2c1.5,0.1,3.1,1,4.4,2.4L58,81c0.7,0.9,1.4,1.7,2.1,2.6
	c5.1,6.2,9,10.7,14.2,11.2c2.8,4.1,6.7,8.2,9.7,11.4c1.5,1.6,2.8,3,3.6,4c0.2,0.3,0.5,0.5,0.7,0.6c0,0.3,0,0.6,0.1,0.9
	C91.7,119.9,91.7,128.4,88.4,135.6z M176.4,91.9c-0.2,0.2-17,22.2-17.7,23.2l-1.8,2.3c-11.5,14.7-25.8,33.1-41.4,33.1c0,0,0,0-0.1,0
	c-7.9,0-15.5-4.6-23.2-14c3.3-7.9,3.3-16.9,0-25.7c0.2-0.2,0.5-0.4,0.7-0.6c0.8-1,2.1-2.4,3.6-4c3-3.2,6.9-7.3,9.7-11.4
	c5-0.7,8.7-5.2,13.6-11.2c0.7-0.8,1.4-1.7,2.1-2.6l19.5-24.4c3-3.2,6.1-2.9,7.9-1.3c0.9,0.8,1.4,2,1.4,3.3c0,1.1-0.4,2.3-1.2,3.4
	l-24,30.1c-0.7,0.8-0.5,2,0.3,2.7c0.8,0.7,2,0.5,2.7-0.3l22.9-28.7c0.5-0.5,0.9-1,1.3-1.6l3.7-4.7c2.5-3.5,5.7-3.5,7.8-2
	c2,1.5,2.9,4.5,0.5,7.9l-26.3,31.5c-0.7,0.8-0.6,2,0.2,2.7c0.8,0.7,2,0.6,2.7-0.2L166,69.9c0.8-1.1,1.9-1.7,3-1.8
	c1.1-0.1,2.2,0.3,3.2,1c1,0.7,1.7,1.7,1.9,2.8c0.3,1.2,0,2.3-0.8,3.4l-26.1,32.4c-0.7,0.8-0.5,2,0.3,2.7c0.8,0.7,2,0.5,2.7-0.3
	l18.5-22.8c1.8-2.6,4.6-2.5,6.5-1.2C176.8,87.1,178.1,89.4,176.4,91.9z"/>
</svg>
