
<svg xmlns="http://www.w3.org/2000/svg" width="704" height="895" viewBox="0 0 704 895">
    <style>
        path {
            fill: #000;
        }

        @media (prefers-color-scheme: dark) {
            path {
                fill: #fff;
            }
        }
    </style>
    <path d="M424.176739,803.002889 L117.570429,803.002889 L117.570429,518.709416 L258.066449,518.709416 L258.066449,420 L11,420 L11,803.002889 L11,904.347787 L414.979363,904.347787 C545.239299,904.347787 607.087216,967.527986 607.087216,1053.08489 C607.087216,1147.83942 545.239299,1216.29058 414.979363,1216.29058 L336.05416,1216.29058 L336.05416,1315 L424.176739,1315 C614.993674,1315 715,1201.79377 715,1053.08489 C715,916.18256 614.993674,803.002889 424.176739,803.002889 L424.176739,803.002889 Z M117.570429,980.680501 L11,980.680501 L11,1315 L258.066449,1315 L258.066449,1216.29058 L117.570429,1216.29058 L117.570429,980.680501 Z M391.289855,518.709416 L336.05416,518.709416 L336.05416,420 L397.877188,420 C562.366363,420 654.46955,520.025497 654.46955,650.312565 C654.46955,683.232853 649.198024,710.857284 637.365715,735.871126 L529.452931,735.871126 C539.994322,712.173365 545.239299,688.478923 545.239299,658.220671 C545.239299,577.934733 493.931114,518.709416 391.289855,518.709416 L391.289855,518.709416 Z" transform="translate(-11 -420)"/>
</svg>
