<svg width="704" height="4063.6" xmlns="http://www.w3.org/2000/svg" xmlns:xlink="http://www.w3.org/1999/xlink"><defs><symbol id="arrow-big" viewBox="0 0 76.4 74.2">

<g transform="translate(1 1)">

		<rect x="-1" y="35.1" transform="matrix(1 -2.605006e-03 2.605006e-03 1 -9.333911e-02 9.586079e-02)" class="st0" width="75.5" height="1.5" />
	<rect x="55.5" y="-8.2" transform="matrix(0.7014 -0.7128 0.7128 0.7014 4.1354 45.4401)" class="st0" width="1.5" height="52" />

		<rect x="30.1" y="53.3" transform="matrix(0.7071 -0.7071 0.7071 0.7071 -21.7519 55.6494)" class="st0" width="52.5" height="1.5" />
</g>
</symbol><symbol id="arrow-left" viewBox="0 0 18 18">
<polygon points="0.1,9.1 8.9,0.1 10,1.2 2.9,8.3 17.6,8.3 17.6,9.8 2.9,9.8 10,17 8.9,17.9 " />
</symbol><symbol id="arrow-right" viewBox="0 0 18 18">
<polygon points="17.6,8.9 8.8,17.9 7.7,16.8 14.8,9.7 0.1,9.7 0.1,8.2 14.8,8.2 7.7,1 8.8,0.1 " />
</symbol><symbol id="close-thin" viewBox="0 0 101 100">
<g transform="translate(1.113 .742)">
	<polygon points="0.3,98.7 -0.4,98 -0.1,97.6 98.8,-0.4 99.5,0.3 99.2,0.7 	" />
	<rect x="48.5" y="-20.8" transform="matrix(0.7071 -0.7071 0.7071 0.7071 -20.2966 49.0003)" width="1" height="139.6" />
</g>
</symbol><symbol id="hero-mask" viewBox="0 0 606.20001 341">
  <g id="hero-mask_Layer_2" data-name="Layer 2">
    <g id="hero-mask_Layer_1-2" data-name="Layer 1-2">
      <path d="M0,0V341H606.2V0ZM214.4,277.1v7.1c-6.2.5-9.8,3.1-10.4,8.9h-8.4C196.5,283.3,204,277.4,214.4,277.1Zm-114.4-1c10.7.7,18.3,6.8,19.3,17.1h-8.1c-1-5.8-5.2-8.7-11.2-9.2Zm-5.8,0v7.8c-6.2.8-9.8,3.8-10.4,9.2H75.4c.9-9.8,8.3-16.2,18.8-17ZM12.5,258.8H42.3c12.7,0,19.8,7.7,19.8,17.8a14.9817,14.9817,0,0,1-1.3,6.6H52.5a13.71222,13.71222,0,0,0,1.2-6c0-6.2-4-10.8-11.9-10.8H20.7v16H12.5Zm31.8,69H12.5V302h8.2v18.2H43.6c10,0,14.8-5.3,14.8-12.6,0-6.6-4.8-11.5-14.8-11.5H12.5v-7.8H44.4c14.7,0,22.4,8.7,22.4,19.3C66.8,319.1,59.1,327.8,44.3,327.8Zm75.1,0h-8V318c-1.6,6.2-6.1,10.1-11.4,10.6v-7.4c6.6-1.1,11.4-4.3,11.4-9.9v-5.4H93.1c-8.4,0-11.2,4.2-11.2,8.1,0,4.7,4.2,7.4,11.4,7.4h.9v7.5H92.8c-11.1,0-18.9-5.8-18.9-14.5S80.4,299,92.6,299h26.9Zm21,0h-8V277.1h8Zm0-56.6h-8V258.8h8Zm21.4,56.6h-8v-69h8Zm21.4,0h-8v-69h8Zm56.5,0h-8V318c-1.6,6.2-6.1,10.1-11.4,10.6v-7.4c6.6-1.1,11.4-4.3,11.4-9.9v-5.4H213.3c-8.4,0-11.2,4.2-11.2,8.1,0,4.7,4.2,7.4,11.4,7.4h.9v7.5H213c-11.1,0-18.9-5.8-18.9-14.5s6.5-15.4,18.7-15.4h18.9v-9.1h8Zm40.8,0H257.3v-38h8v31h15.2Zm0-43.8H220.3v-6.9h36.9V258.8h8v18.3h15.2Zm51.8,44.8c-14.1-.6-24-8.7-25.4-21.6h8.8c.9,8.4,6.7,13,16.5,13.5v8.1Zm5.9,0v-8.1c10.5-.8,16.9-4.8,16.9-12.2,0-19.8-46-4-46-31.6,0-10,9.3-18.4,23.2-19.4v8.1c-9.4.8-14.7,4.7-14.7,11,0,18.9,46,3,46,31.6C363.5,319.9,352.8,327.8,338.2,328.8Zm59.7-1H374.7v-38h8v31H398Zm0-43.8H374.7V272.2c0-4.7-2.6-7.3-6.6-7.3-4.3,0-6.9,2.6-6.9,7.3v7h-8.8c-.8-7.8-5.9-12.6-14.2-13.5v-8.1c10.5.7,18.4,6.1,21.2,15a28.90836,28.90836,0,0,1-.8-5.9c0-5.1,4.7-9.1,11.1-9.1s13.1,4.5,13.1,12.8v6.7H398Zm41.7,41.6a26.1268,26.1268,0,0,1-12.5,3.5c-12.5,0-20.5-8.3-20.5-21.1V277.1h8v30.3c0,8.6,5.2,13.8,13.4,13.8a20.90449,20.90449,0,0,0,11.6-3.6Zm13.8,2.2h-7.9V277.1h7.9Zm46.2-40.9a20.52643,20.52643,0,0,0-11.1-3.2c-10.1,0-18,7.9-18,18.8s7.8,18.8,18,18.8a20.87744,20.87744,0,0,0,11.1-3.3v8.1a22.09991,22.09991,0,0,1-11.8,3c-14.2,0-25.5-11.4-25.5-26.6s11.3-26.6,25.5-26.6a23.29747,23.29747,0,0,1,11.8,3Zm13.9,40.9h-8v-69h8Zm21.4,0h-8V277.1h8Zm0-56.6h-8V258.8h8Zm31.9,12.7c-8.5,1.4-14.8,8.8-14.8,18.6s6.3,17.1,14.8,18.6v7.8c-12.9-1.4-23-12.2-23-26.4s10.2-25,23-26.4Zm5.9,45v-7.8c8.6-1.4,14.8-8.8,14.8-18.6s-6.2-17.1-14.8-18.6v-7.8c12.9,1.4,23,12.2,23,26.4a26.07442,26.07442,0,0,1-23,26.4Z" />
    </g>
  </g>
</symbol><symbol viewBox="0 0 704 895" id="logo">
  <path fill-rule="evenodd" d="M424.176739,803.002889 L117.570429,803.002889 L117.570429,518.709416 L258.066449,518.709416 L258.066449,420 L11,420 L11,803.002889 L11,904.347787 L414.979363,904.347787 C545.239299,904.347787 607.087216,967.527986 607.087216,1053.08489 C607.087216,1147.83942 545.239299,1216.29058 414.979363,1216.29058 L336.05416,1216.29058 L336.05416,1315 L424.176739,1315 C614.993674,1315 715,1201.79377 715,1053.08489 C715,916.18256 614.993674,803.002889 424.176739,803.002889 L424.176739,803.002889 Z M117.570429,980.680501 L11,980.680501 L11,1315 L258.066449,1315 L258.066449,1216.29058 L117.570429,1216.29058 L117.570429,980.680501 Z M391.289855,518.709416 L336.05416,518.709416 L336.05416,420 L397.877188,420 C562.366363,420 654.46955,520.025497 654.46955,650.312565 C654.46955,683.232853 649.198024,710.857284 637.365715,735.871126 L529.452931,735.871126 C539.994322,712.173365 545.239299,688.478923 545.239299,658.220671 C545.239299,577.934733 493.931114,518.709416 391.289855,518.709416 L391.289855,518.709416 Z" transform="translate(-11 -420)" />
</symbol><symbol viewBox="0 0 489 620" id="logo-hero-1">
  <g fill-rule="evenodd">
    <polygon points="74.619 435 0 435 0 620 173 620 173 551.195 74.619 551.195" />
    <path d="M370.831345,167.420463 C370.831345,188.694814 367.179775,205.340925 359.838063,222 L435.068111,222 C443.322715,204.420463 447,185 447,161.858795 C447,70.3051857 382.788949,0 268.098807,0 L225,0 L225,69.3847232 L263.50863,69.3847232 C335.07425,69.3847232 370.831345,110.987036 370.831345,167.420463" />
    <path d="M287.39782,265.334597 L74.9932413,265.334597 L74.9932413,68.3877084 L172.381028,68.3877084 L172.381028,0 L1.11505514,0 L1.11505514,265.334597 L1,265.334597 L1,335.536778 L281.031436,335.536778 C371.311372,335.536778 414.188589,379.301333 414.188589,438.578348 C414.188589,504.206014 371.311372,551.62507 281.031436,551.62507 L226.316323,551.62507 L226.316323,620 L287.39782,620 C419.672884,620 489,541.581583 489,438.578348 C489,343.740236 419.672884,265.334597 287.39782,265.334597" />
  </g>
</symbol><symbol viewBox="0 0 488 620" id="logo-hero-2">
  <g fill-rule="evenodd" transform="matrix(-1 0 0 1 488 0)">
    <polygon points="74.188 435 0 435 0 620 172 620 172 551.491 74.188 551.491" />
    <path d="M371.488243,167.420463 C371.488243,188.694814 367.820225,205.340925 360.445442,222 L436.014363,222 C444.306151,204.420463 448,185 448,161.858795 C448,70.3051857 383.49971,0 268.292946,0 L225,0 L225,69.3847232 L263.682092,69.3847232 C335.57008,69.3847232 371.488243,110.987036 371.488243,167.420463" />
    <path d="M286.39782,265.334597 L73.9932413,265.334597 L73.9932413,68.3877084 L171.381028,68.3877084 L171.381028,0 L0.115055144,0 L0.115055144,265.334597 L0,265.334597 L0,335.536778 L280.031436,335.536778 C370.311372,335.536778 413.188589,379.301333 413.188589,438.578348 C413.188589,504.206014 370.311372,551.62507 280.031436,551.62507 L225.316323,551.62507 L225.316323,620 L286.39782,620 C418.672884,620 488,541.581583 488,438.578348 C488,343.740236 418.672884,265.334597 286.39782,265.334597" />
  </g>
</symbol><symbol id="logo-mask" viewBox="0 0 704 895">
<style type="text/css">
	#logo-mask .st0{fill:#CECECE;}
</style>
<g>
	<path class="st0" d="M386.9,0c164.5,0,256.6,100,256.6,230.3c0,32.9-5.3,60.5-17.1,85.6H518.5c10.5-23.7,15.8-47.4,15.8-77.7
		c0-80.3-51.3-139.5-153.9-139.5h-55.2V0h-78v98.7H106.6V383h306.6C604,383,704,496.2,704,633.1V0H386.9z" />
	<path class="st0" d="M404,796.3c130.3,0,192.1-68.5,192.1-163.2c0-85.6-61.8-148.7-192.1-148.7H0v76.3h106.6v235.6h140.5V895h78
		v-98.7H404z" />
	<path class="st0" d="M413.2,895H704V633.1C704,781.8,604,895,413.2,895z" />
</g>
</symbol><symbol id="play" viewBox="0 0 641 211.1">

		<path d="M0,0v211.1h641V0H0z M70.8,188.3H51.3V127h19.5V188.3z M127.2,113h-76V94.5h74.5c21,0,30.6-10.6,30.6-25.6
			c0-15.4-9.6-26.5-30.6-26.5h-55v38.1H51.3V24.3h76c31.8,0,49.2,18.8,49.2,44.4C176.4,93.3,159.1,113.1,127.2,113z M220.6,188.3
			H201v-164h19.5L220.6,188.3z M306.4,188.3h-71.9v-18.6h71.9V188.3z M312.9,188.3l54.7-164h19.8l-54.3,164H312.9z M453,188.3
			l-16.9-50.6H367v-18.1h63.2l-31.6-95.2H419l54.7,164L453,188.3z M462.2,24.3H483l45.3,110.9h-20.5L462.2,24.3z M537.5,188.3h-20
			l67-164h20.2L537.5,188.3z" />

</symbol><symbol id="play-simple" viewBox="0 0 13.5 11.8">
<path d="M13.5,5.9L3,11.8V0L13.5,5.9z" />
</symbol><symbol id="plus" viewBox="0 0 22 22">
<g transform="translate(2 2)">
	<rect x="-1" y="8" transform="matrix(1 -3.417949e-03 3.417949e-03 1 -3.070897e-02 3.081327e-02)" width="20" height="2" />
	<rect x="7.9" y="-1" transform="matrix(1 -6.689304e-03 6.689304e-03 1 -6.000393e-02 5.993802e-02)" width="2" height="20" />
</g>
</symbol><symbol id="plus-thin" viewBox="0 0 80.4 79.5">
<g transform="translate(1 1)">
	<rect x="-1" y="38.3" transform="matrix(1 -2.605006e-03 2.605006e-03 1 -0.1017 0.1023)" width="80.4" height="1.5" />
	<rect x="38.5" y="-1" transform="matrix(1 -4.802883e-03 4.802883e-03 1 -0.1857 0.1888)" width="1.5" height="79.5" />
</g>
</symbol><symbol viewBox="0 0 18 18" id="spinner"><path d="M1.50408,9.468A7.647,7.647,0,0,1,8.54816,1.43051a7.73553,7.73553,0,0,1,7.94716,7.94717" /></symbol></defs></svg>