<svg xmlns="http://www.w3.org/2000/svg" viewBox="0 0 1000 1000"><defs><style>.cls-1{isolation:isolate;}.cls-2{mix-blend-mode:multiply;}</style></defs><g class="cls-1"><g id="Layer_1" data-name="Layer 1"><g class="cls-2"><path d="M205.35,539v4.11l-2.89.26c-2.06.32-2.44.77-2.44,3.08l.06,15.47H195.2l-1-6.55c-3.21,4.69-8.54,7.45-16,7.45-12.65,0-19.26-8.92-19.26-24,0-14.45,8.09-23,21.77-23,6.55,0,11.3,2.56,13.8,7.06l1.29-6.17h3.72l-.06,18.69h-4.82l-.45-3.72c-.9-6.94-5.52-10.79-12.58-10.79-8,0-15,4.82-15,18,0,12.91,5,18.75,13.36,18.88,6.61.06,12.52-3.34,12.52-11.11v-.9c0-1.6-1-2.18-2.63-2.18l-9.12-.32V539Z"/><path d="M235.26,537.18c0,3.53-2,4.56-4,4.56s-3.47-1-3.47-3.09a2.8,2.8,0,0,1,1.92-2.76,4.56,4.56,0,0,0-2.18-.51c-4.05,0-7,4.56-7,11.88v9.18c0,1.48.58,1.93,2.57,2.12l4.3.26V562H208.35v-3.14l3.27-.26c1.61-.19,2-.64,2-2.12V537.05c0-1.48-.39-1.93-2-2.06l-3.27-.25v-3.22h10.47l.64,8c1.35-5.85,4.43-8.86,9-8.86A6.42,6.42,0,0,1,235.26,537.18Z"/><path d="M270.56,560.81a10.65,10.65,0,0,1-6,1.73c-3.79,0-5.78-1.86-6-5.71a11.52,11.52,0,0,1-10.53,6c-5.4,0-8.54-3.14-8.54-7.89,0-5.72,3.66-8.61,11.62-9.51l6.81-.77v-2.57c0-6.23-2.7-7.26-5.85-7.26a8.24,8.24,0,0,0-6.67,2.83,2.68,2.68,0,0,1,2.44,2.89,3.29,3.29,0,0,1-3.6,3.15,3.48,3.48,0,0,1-3.53-3.79c0-4.82,4.88-9.31,12.39-9.31,8,0,11.63,3.59,11.63,12.2v12.26c0,2.06.45,3,2,3a5.24,5.24,0,0,0,2.83-.83Zm-12.65-10.92v-1.41l-5.27.64c-4.62.58-7.32,1.61-7.32,4.88s2.25,4.24,4.56,4.24C254.51,558.24,257.91,553.68,257.91,549.89Z"/><path d="M312.13,558.5V562H295.82V558.5l2.7-.26c1.41-.13,1.73-.51,1.73-1.61V542.51c0-6.17-2.82-7.52-5.71-7.52-4.37,0-7.9,3.47-7.9,10.47v11.11c0,1.16.32,1.61,1.8,1.73l2.56.2V562H274.76V558.5l2.95-.26c1.61-.13,2-.58,2-2.06V537.3c0-1.41-.38-1.86-2-2l-2.95-.26v-3.47h10.66l.58,6.62c1.66-4.5,5.77-7.51,11.36-7.51,6.94,0,9.83,4,9.83,11.43v14.12c0,1.48.38,1.93,2,2.06Z"/><path d="M338.16,559.2a16.07,16.07,0,0,1-10.53,3.66c-6.74,0-9.82-3.59-9.82-11.75V535.44H313.7v-3.92h4.11c1.73,0,2.69-2.24,2.63-8.22h4.37v8.22H335.4v3.92H324.81l-.07,15.8c0,4.62,1.61,6.81,4.82,6.81a9.51,9.51,0,0,0,6.93-3.08Z"/><path d="M379.3,558.5V562H363V558.5l2.7-.26c1.35-.13,1.67-.51,1.67-1.61V542.12c0-5.65-2.7-7.06-5.78-7.06-4.24,0-7.77,3.53-7.77,10.14v11.37c0,1.16.32,1.61,1.8,1.73l2.63.2V562H341.86V558.5l3-.26c1.55-.13,2-.58,2-2.06v-35.7c0-1.41-.45-1.86-2-2.06l-3-.25V514.7h11.95v14.51c0,2.89-.06,5.46-.13,7.71a11.56,11.56,0,0,1,10.79-6.29c7,0,9.89,4,9.89,10.91v14.64c0,1.48.38,1.93,1.93,2.06Z"/><path d="M415.12,560.81a10.68,10.68,0,0,1-6,1.73c-3.78,0-5.78-1.86-6-5.71a11.52,11.52,0,0,1-10.53,6c-5.4,0-8.55-3.14-8.55-7.89,0-5.72,3.67-8.61,11.63-9.51l6.81-.77v-2.57c0-6.23-2.7-7.26-5.85-7.26a8.28,8.28,0,0,0-6.68,2.83,2.68,2.68,0,0,1,2.44,2.89,3.28,3.28,0,0,1-3.59,3.15,3.47,3.47,0,0,1-3.53-3.79c0-4.82,4.88-9.31,12.39-9.31,8,0,11.62,3.59,11.62,12.2v12.26c0,2.06.45,3,2.06,3a5.21,5.21,0,0,0,2.82-.83Zm-12.65-10.92v-1.41l-5.27.64c-4.62.58-7.32,1.61-7.32,4.88s2.25,4.24,4.56,4.24C399.06,558.24,402.47,553.68,402.47,549.89Z"/><path d="M475.31,558.5V562H459.13V558.5l2.57-.26c1.41-.13,1.73-.51,1.73-1.61v-14.7c0-5.46-2.31-6.94-5.26-6.94-3.92,0-7.32,3.15-7.32,9.51v12.07c0,1.16.32,1.61,1.66,1.73l2.57.2V562H439.54V558.5l2.57-.26c1.41-.13,1.73-.51,1.73-1.61v-15c0-5.27-2.31-6.62-5.13-6.62-4.11,0-7.52,3.28-7.52,9.64v11.94c0,1.16.33,1.61,1.67,1.73l2.64.2V562H419.31V558.5l3-.26c1.6-.13,2-.58,2-2.06V537.3c0-1.41-.39-1.86-2-2l-3-.26v-3.47h10.47l.9,5.78c1.67-4,5.52-6.67,10.6-6.67,5.33,0,8.09,2.37,9.12,6.48,1.73-4,5.39-6.48,10.46-6.48,6.94,0,9.51,4.11,9.51,11v14.51c0,1.48.38,1.93,1.92,2.06Z"/><path d="M531.31,530.11h-3.66l-.7-4.75c-.58-3.27-1.54-3.66-4.69-3.66h-15v15.16H523v4.88H507.3v13.1c0,2,.64,2.44,3.53,2.76l5.26.32v4H493.94v-4l3.27-.26c2.25-.32,2.7-.77,2.7-2.44V523.5c0-1.67-.45-2.12-2.7-2.38l-3.27-.32v-4h37.37Z"/><path d="M548,562.86c-10.46,0-15.34-6.29-15.34-16.5S538,530.63,548,530.63s15.29,5.45,15.29,15.73S558.37,562.86,548,562.86Zm0-28.44c-4.3,0-8.15,2.88-8.15,11.94S543.4,559,548,559s8.16-3.54,8.16-12.59S552.27,534.42,548,534.42Z"/><path d="M603.17,558.5V562H592.83l-.89-6c-1.74,4.3-5.72,6.87-11,6.87-6.93,0-9.76-4-9.76-11.17V537.3c0-1.41-.32-1.86-1.8-2l-2.95-.26v-3.47h11.75V552c0,5.13,2.64,6.55,5.53,6.55,4.23,0,7.7-3.73,7.7-10.15V537.3c0-1.41-.38-1.86-1.93-2l-3.27-.26v-3.47h12.14v24.66c0,1.48.38,1.93,1.8,2.06Z"/><path d="M645.6,558.5V562H629.29V558.5l2.69-.26c1.42-.13,1.74-.51,1.74-1.61V542.51c0-6.17-2.83-7.52-5.72-7.52-4.36,0-7.9,3.47-7.9,10.47v11.11c0,1.16.33,1.61,1.8,1.73l2.57.2V562H608.22V558.5l3-.26c1.6-.13,2-.58,2-2.06V537.3c0-1.41-.39-1.86-2-2l-3-.26v-3.47h10.66l.58,6.62c1.67-4.5,5.78-7.51,11.37-7.51,6.94,0,9.82,4,9.82,11.43v14.12c0,1.48.39,1.93,2,2.06Z"/><path d="M683.93,558.82V562H674l-.9-5.07c-2,3.73-5.71,5.91-11.17,5.91-8.22,0-12.84-5.78-12.84-15.93,0-9.89,4.56-16.24,13.68-16.24,4.75,0,7.44,2.12,9,4.88V520.22c0-1.47-.39-1.92-2-2.05l-3.6-.26V514.7h12.52v41.74c0,1.48.45,1.93,2,2.12Zm-11.88-12c0-8.47-2.7-12.45-7.58-12.39-5.14,0-8.22,4-8.22,12.39S659.2,559,664,559C668.32,559,672.05,555.8,672.05,546.87Z"/><path d="M719.61,560.81a10.65,10.65,0,0,1-6,1.73c-3.79,0-5.78-1.86-6-5.71a11.52,11.52,0,0,1-10.53,6c-5.4,0-8.54-3.14-8.54-7.89,0-5.72,3.66-8.61,11.62-9.51l6.81-.77v-2.57c0-6.23-2.7-7.26-5.84-7.26a8.25,8.25,0,0,0-6.68,2.83,2.68,2.68,0,0,1,2.44,2.89,3.29,3.29,0,0,1-3.6,3.15,3.48,3.48,0,0,1-3.53-3.79c0-4.82,4.88-9.31,12.39-9.31,8,0,11.63,3.59,11.63,12.2v12.26c0,2.06.45,3,2.05,3a5.24,5.24,0,0,0,2.83-.83ZM707,549.89v-1.41l-5.27.64c-4.62.58-7.32,1.61-7.32,4.88s2.25,4.24,4.56,4.24C703.56,558.24,707,553.68,707,549.89Z"/><path d="M744.94,559.2a16.07,16.07,0,0,1-10.53,3.66c-6.74,0-9.83-3.59-9.83-11.75V535.44h-4.11v-3.92h4.11c1.74,0,2.7-2.24,2.64-8.22h4.37v8.22h10.59v3.92H731.59l-.07,15.8c0,4.62,1.61,6.81,4.82,6.81a9.53,9.53,0,0,0,6.93-3.08Z"/><path d="M766.36,558.82V562H748.89v-3.14l3.27-.26c1.54-.19,2-.64,2-2.12V537.05c0-1.48-.45-1.93-2-2.06l-3.27-.25v-3.22h12.2v24.92c0,1.48.39,1.93,1.93,2.12Zm-12.91-36.73a4.14,4.14,0,1,1,8.28,0,4.14,4.14,0,1,1-8.28,0Z"/><path d="M784.71,562.86c-10.47,0-15.35-6.29-15.35-16.5s5.4-15.73,15.35-15.73S800,536.08,800,546.36,795.11,562.86,784.71,562.86Zm0-28.44c-4.3,0-8.16,2.88-8.16,11.94s3.6,12.65,8.16,12.59,8.16-3.54,8.16-12.59S789,534.42,784.71,534.42Z"/><path d="M841.08,558.5V562H824.77V558.5l2.7-.26c1.41-.13,1.73-.51,1.73-1.61V542.51c0-6.17-2.82-7.52-5.71-7.52-4.37,0-7.9,3.47-7.9,10.47v11.11c0,1.16.32,1.61,1.8,1.73l2.57.2V562H803.71V558.5l2.95-.26c1.61-.13,2-.58,2-2.06V537.3c0-1.41-.38-1.86-2-2l-2.95-.26v-3.47h10.66l.58,6.62c1.67-4.5,5.78-7.51,11.36-7.51,6.94,0,9.83,4,9.83,11.43v14.12c0,1.48.38,1.93,2,2.06Z"/><path d="M245.85,583.22,244,584.6c-.29-2.21-1.63-2.92-2.92-2.92-2.38,0-3.24,1.48-3.24,4v2.67h4.85v1.93h-4.85l0,13.26h-2.76V590.26h-2.54v-1.93h2.54v-2.41c0-3.79,1.67-6.46,5.78-6.46A4.89,4.89,0,0,1,245.85,583.22Z"/><path d="M252.31,604c-5,0-7.46-3.15-7.46-8.25s2.7-7.84,7.46-7.84,7.45,2.7,7.45,7.84S257.28,604,252.31,604Zm0-14.16c-2.38,0-4.63,1.41-4.63,5.91s2.09,6.32,4.63,6.29,4.62-1.8,4.62-6.29S254.68,589.81,252.31,589.81Z"/><path d="M274.85,593.12l-2.19.44c0-3-1.28-3.56-2.47-3.56-2.05,0-3.69,1.77-3.69,5.81v7.71h-2.73V588.33h2.08l.36,3a4.82,4.82,0,0,1,4.75-3.41C273.72,587.91,274.85,589.84,274.85,593.12Z"/><path d="M294,601.82A5.92,5.92,0,0,1,289,604c-3.05,0-4.62-1.73-4.62-5.65v-7.9h-2.16v-2.09h2.16c.74,0,1.09-1.54,1-4h1.73v4h5.49v2.09h-5.49l0,7.54c0,2.54.86,3.76,2.63,3.76a3.41,3.41,0,0,0,3.15-1.8Z"/><path d="M310,593.28v10.24h-2.76v-9.67c0-3.11-1.61-3.79-3.28-3.79-2.41,0-4.43,1.87-4.43,5.4v8.06h-2.73V579.91h2.73v7.84c0,1.32,0,2.51,0,3.53a5.86,5.86,0,0,1,5.52-3.4C308.47,587.88,310,589.93,310,593.28Z"/><path d="M327.56,596.33h-11c.16,4.21,1.83,5.68,4.37,5.71s4-1.28,4.36-3.5l2.22.42c-.39,3.08-2.79,5-6.84,5-4.76,0-6.91-3.11-6.91-8.22s2.64-7.87,7.33-7.87c4.2,0,6.48,2.28,6.48,7.64Zm-10.95-1.87H325c-.16-3.56-1.8-4.65-3.92-4.65S317,590.8,316.61,594.46Z"/><path d="M355.25,587.56c0,4.27-2.54,7.32-7.62,7.32H341v8.64h-2.93V580.94h9.83C353,580.94,355.25,583.13,355.25,587.56Zm-3,.09c0-2.82-1.38-4.27-5-4.27H341v9.16h6C350.56,592.54,352.23,590.42,352.23,587.65Z"/><path d="M369.61,593.12l-2.18.44c0-3-1.29-3.56-2.48-3.56-2.05,0-3.69,1.77-3.69,5.81v7.71h-2.73V588.33h2.09l.35,3a4.84,4.84,0,0,1,4.75-3.41C368.49,587.91,369.61,589.84,369.61,593.12Z"/><path d="M379.38,604c-5,0-7.46-3.15-7.46-8.25s2.7-7.84,7.46-7.84,7.45,2.7,7.45,7.84S384.36,604,379.38,604Zm0-14.16c-2.38,0-4.63,1.41-4.63,5.91s2.09,6.32,4.63,6.29,4.62-1.8,4.62-6.29S381.75,589.81,379.38,589.81Z"/><path d="M400.54,601.82a5.92,5.92,0,0,1-4.92,2.15c-3.05,0-4.63-1.73-4.63-5.65v-7.9h-2.15v-2.09H391c.74,0,1.1-1.54,1-4h1.74v4h5.49v2.09h-5.49l0,7.54c0,2.54.87,3.76,2.64,3.76a3.41,3.41,0,0,0,3.15-1.8Z"/><path d="M415.9,596.33h-11c.16,4.21,1.83,5.68,4.37,5.71s4.05-1.28,4.37-3.5l2.22.42c-.39,3.08-2.8,5-6.84,5-4.76,0-6.91-3.11-6.91-8.22s2.63-7.87,7.32-7.87c4.21,0,6.49,2.28,6.49,7.64ZM405,594.46h8.41c-.16-3.56-1.79-4.65-3.92-4.65S405.33,590.8,405,594.46Z"/><path d="M430.48,598.09l2.34.36c-.35,3.43-2.76,5.52-6.84,5.52-5,0-7.16-3.18-7.16-8.22s2.54-7.84,7.48-7.84c4.15,0,6,2,6.4,5.46l-2.35.39c-.32-2.64-1.57-3.92-4-3.92s-4.69,1.32-4.69,5.91,2,6.26,4.5,6.29S430.16,600.7,430.48,598.09Z"/><path d="M446.71,601.82a5.89,5.89,0,0,1-4.92,2.15c-3.05,0-4.62-1.73-4.62-5.65v-7.9H435v-2.09h2.15c.74,0,1.09-1.54,1-4h1.73v4h5.49v2.09h-5.49l0,7.54c0,2.54.87,3.76,2.63,3.76a3.41,3.41,0,0,0,3.15-1.8Z"/><path d="M449.18,583.61a1.74,1.74,0,1,1,1.77,1.76A1.76,1.76,0,0,1,449.18,583.61Zm3.11,4.72v15.19h-2.73V588.33Z"/><path d="M463.62,604c-5,0-7.45-3.15-7.45-8.25s2.7-7.84,7.45-7.84,7.45,2.7,7.45,7.84S468.6,604,463.62,604Zm0-14.16c-2.38,0-4.63,1.41-4.63,5.91s2.09,6.32,4.63,6.29,4.63-1.8,4.63-6.29S466,589.81,463.62,589.81Z"/><path d="M488.28,593.28v10.24h-2.73v-9.67c0-3.11-1.63-3.79-3.3-3.79-2.38,0-4.44,1.87-4.44,5.4v8.06h-2.73V588.33h2.22l.35,3.24a5.93,5.93,0,0,1,5.69-3.69C486.81,587.88,488.28,589.93,488.28,593.28Z"/><path d="M506.14,604c-5,0-7.45-3.15-7.45-8.25s2.69-7.84,7.45-7.84,7.45,2.7,7.45,7.84S511.12,604,506.14,604Zm0-14.16c-2.38,0-4.63,1.41-4.63,5.91s2.09,6.32,4.63,6.29,4.62-1.8,4.62-6.29S508.51,589.81,506.14,589.81Z"/><path d="M529,583.22l-1.86,1.38c-.29-2.21-1.64-2.92-2.93-2.92-2.37,0-3.24,1.48-3.24,4v2.67h4.85v1.93h-4.85l0,13.26h-2.76V590.26h-2.54v-1.93h2.54v-2.41c0-3.79,1.67-6.46,5.78-6.46A4.89,4.89,0,0,1,529,583.22Z"/><path d="M545.78,601.82a5.92,5.92,0,0,1-4.92,2.15c-3.05,0-4.63-1.73-4.63-5.65v-7.9h-2.15v-2.09h2.15c.74,0,1.1-1.54,1-4H539v4h5.49v2.09H539l0,7.54c0,2.54.87,3.76,2.64,3.76a3.41,3.41,0,0,0,3.15-1.8Z"/><path d="M561.77,593.28v10.24H559v-9.67c0-3.11-1.61-3.79-3.28-3.79-2.41,0-4.43,1.87-4.43,5.4v8.06h-2.73V579.91h2.73v7.84c0,1.32,0,2.51,0,3.53a5.87,5.87,0,0,1,5.53-3.4C560.29,587.88,561.77,589.93,561.77,593.28Z"/><path d="M579.38,596.33h-11c.16,4.21,1.83,5.68,4.37,5.71s4-1.28,4.36-3.5l2.22.42c-.39,3.08-2.79,5-6.84,5-4.76,0-6.91-3.11-6.91-8.22s2.64-7.87,7.33-7.87c4.2,0,6.48,2.28,6.48,7.64Zm-11-1.87h8.42c-.16-3.56-1.8-4.65-3.92-4.65S568.82,590.8,568.43,594.46Z"/><path d="M592.77,583.48v7.26h10.51v2.34H592.8V601h12.5v2.54H589.88V580.94H605.3v2.54Z"/><path d="M622.06,593.28v10.24h-2.73v-9.67c0-3.11-1.63-3.79-3.3-3.79-2.38,0-4.44,1.87-4.44,5.4v8.06h-2.73V588.33h2.22l.35,3.24a5.93,5.93,0,0,1,5.69-3.69C620.59,587.88,622.06,589.93,622.06,593.28Z"/><path d="M640,588.33l-6.49,15.19h-3.11l-5.75-15.19h3l4.41,13.1,4.91-13.1Z"/><path d="M642.82,583.61a1.77,1.77,0,0,1,1.77-1.77,1.75,1.75,0,0,1,1.7,1.77,1.76,1.76,0,0,1-1.7,1.76A1.78,1.78,0,0,1,642.82,583.61Zm3.12,4.72v15.19h-2.73V588.33Z"/><path d="M662,593.12l-2.18.44c0-3-1.29-3.56-2.48-3.56-2.05,0-3.69,1.77-3.69,5.81v7.71h-2.73V588.33H653l.35,3a4.84,4.84,0,0,1,4.75-3.41C660.89,587.91,662,589.84,662,593.12Z"/><path d="M671.78,604c-5,0-7.45-3.15-7.45-8.25s2.7-7.84,7.45-7.84,7.45,2.7,7.45,7.84S676.76,604,671.78,604Zm0-14.16c-2.38,0-4.63,1.41-4.63,5.91s2.09,6.32,4.63,6.29,4.63-1.8,4.63-6.29S674.16,589.81,671.78,589.81Z"/><path d="M696.44,593.28v10.24h-2.73v-9.67c0-3.11-1.64-3.79-3.31-3.79-2.37,0-4.43,1.87-4.43,5.4v8.06h-2.73V588.33h2.22l.35,3.24a5.93,5.93,0,0,1,5.69-3.69C695,587.88,696.44,589.93,696.44,593.28Z"/><path d="M723.93,593.37v10.15H721.2v-9.7c0-3.18-1.39-3.85-3-3.85-2.25,0-4.21,1.8-4.21,5.3v8.25h-2.76v-9.79c0-3.09-1.38-3.76-2.92-3.76-2.35,0-4.31,1.83-4.31,5.39v8.16h-2.73V588.33h2.22l.35,3.11a5.64,5.64,0,0,1,5.43-3.53c2.73,0,4.11,1.29,4.56,3.5a5.51,5.51,0,0,1,5.37-3.5C722.67,587.91,723.93,590,723.93,593.37Z"/><path d="M741.57,596.33h-11c.15,4.21,1.83,5.68,4.36,5.71s4.05-1.28,4.37-3.5l2.22.42c-.39,3.08-2.8,5-6.84,5-4.76,0-6.91-3.11-6.91-8.22s2.63-7.87,7.32-7.87c4.21,0,6.49,2.28,6.49,7.64Zm-11-1.87H739c-.17-3.56-1.8-4.65-3.92-4.65S731,590.8,730.62,594.46Z"/><path d="M758.7,593.28v10.24H756v-9.67c0-3.11-1.64-3.79-3.31-3.79-2.38,0-4.43,1.87-4.43,5.4v8.06H745.5V588.33h2.21l.36,3.24a5.91,5.91,0,0,1,5.68-3.69C757.22,587.88,758.7,589.93,758.7,593.28Z"/><path d="M773.41,601.82A5.88,5.88,0,0,1,768.5,604c-3,0-4.63-1.73-4.63-5.65v-7.9h-2.15v-2.09h2.15c.74,0,1.09-1.54,1-4h1.73v4h5.5v2.09h-5.5l0,7.54c0,2.54.87,3.76,2.64,3.76a3.39,3.39,0,0,0,3.14-1.8Z"/></g><path d="M519.1,427.61a14,14,0,0,1,2.52-.21,20,20,0,0,1,3.5.33c3.13-8.65,1.73-20.28,1.73-20.28s-11.69.64-19.67,5.22a17.38,17.38,0,0,1,1.16,5.91,12.87,12.87,0,0,1-7.58,11.74,12.88,12.88,0,0,0,8.1,6.8A12.87,12.87,0,0,1,519.1,427.61Z"/><path d="M505.41,456.69l-1,0a12.93,12.93,0,0,0-9,3.65,12.88,12.88,0,0,1,3.11,13.63,17.25,17.25,0,0,1-3.11,5.15c5.93,7,16.7,11.63,16.7,11.63s5.29-10.44,5.31-19.64a17.4,17.4,0,0,1-5.7-1.95A12.88,12.88,0,0,1,505.41,456.69Z"/><path d="M523.57,453a13.14,13.14,0,0,1-2.25.19,12.91,12.91,0,0,1-10.63-5.63,12.88,12.88,0,0,0-3.62,4,12.73,12.73,0,0,0-1.66,5.14,12.87,12.87,0,0,1,11.14,8.44,17.31,17.31,0,0,1,.93,5.95,30.6,30.6,0,0,0,5.26.42,59.07,59.07,0,0,0,15-2.24s-2.67-11.4-8.56-18.47A17.16,17.16,0,0,1,523.57,453Z"/><path d="M485.53,456.69a12.73,12.73,0,0,0-1.66-5.14,12.89,12.89,0,0,0-17.59-4.72c-9.08,5.24-13.09,22.43-13.09,22.43a59.07,59.07,0,0,0,15,2.24,30.6,30.6,0,0,0,5.26-.42,17.07,17.07,0,0,1,.93-5.95A12.87,12.87,0,0,1,485.53,456.69Z"/><path d="M502.49,416.45a17.21,17.21,0,0,1,4.69-3.78C504,404,495.47,396,495.47,396s-8.54,8-11.71,16.64a17.36,17.36,0,0,1,4.69,3.78,12.87,12.87,0,0,1,1.73,13.87,12.95,12.95,0,0,0,10.58,0A12.87,12.87,0,0,1,502.49,416.45Z"/><path d="M524.66,446.83a17.6,17.6,0,0,1,4.53,4c7.95-4.62,14.36-14.42,14.36-14.42s-9.37-7-18.43-8.64a17.24,17.24,0,0,1-2.9,5.27,12.9,12.9,0,0,1-13.36,4.12,12.71,12.71,0,0,0-.2,5.4,12.92,12.92,0,0,0,2,5,12.92,12.92,0,0,1,14-.7Z"/><path d="M495.47,460.31a12.93,12.93,0,0,0-9-3.65l-1,0a12.88,12.88,0,0,1-6.37,12.44,17.48,17.48,0,0,1-5.7,1.95c0,9.2,5.31,19.64,5.31,19.64s10.77-4.6,16.7-11.63a17.25,17.25,0,0,1-3.11-5.15A12.88,12.88,0,0,1,495.47,460.31Z"/><path d="M436.5,422.81a14.74,14.74,0,0,0-2.51-.21c-10,0-21.93,9-21.93,9s9.65,14.77,20,16.59a13.34,13.34,0,0,0,2.25.2,12.88,12.88,0,0,0,2.22-25.56Z"/><path d="M482.6,418.58a17.38,17.38,0,0,1,1.16-5.91c-8-4.58-19.67-5.22-19.67-5.22S462,425,468.72,433a12.87,12.87,0,0,0,21.46-2.68A12.87,12.87,0,0,1,482.6,418.58Z"/></g></g></svg>