<svg id="Layer_1" data-name="Layer 1" xmlns="http://www.w3.org/2000/svg" viewBox="0 0 1000 1000"><path d="M479.23,508.54c0-17.49-1.57-19.38-10.87-20.16l-3.93-.33c-.95-.62-.64-3.46.32-3.93,9.12.32,14.48.47,21.1.47,6.3,0,11.66-.15,18-.47.94.47,1.26,3.31.31,3.93l-2.36.33c-9.29,1.25-9.61,3.46-9.61,20.16V554c0,12.44-.63,23.31-3.62,30.56-5.2,12.6-16.38,22.68-31,22.68-1.89,0-6.78-.15-6.78-3.31,0-2.67,2.36-7.24,5.67-7.24a19.9,19.9,0,0,1,5.83.94,23.91,23.91,0,0,0,6.62,1.11,6.71,6.71,0,0,0,6.3-4.1c3.62-7.4,4.09-31,4.09-39.54Z"/><path d="M396.91,593.76c-13.24,0-21.58-4.1-24.58-5.83-1.89-3.47-3.94-14.65-4.25-22,.79-1.11,3.15-1.42,3.78-.48,2.36,8,8.82,23.48,27.09,23.48,13.24,0,19.7-8.67,19.7-18.12,0-6.93-1.42-14.65-12.92-22.06l-15-9.76c-7.87-5.2-17-14.18-17-27.1,0-15,11.66-27.1,32.13-27.1a54,54,0,0,1,14.66,2.06,31.16,31.16,0,0,0,5.51.94c1.42,3.78,2.84,12.61,2.84,19.22-.63.94-3.15,1.42-3.94.47-2.05-7.56-6.3-17.8-21.42-17.8-15.44,0-18.75,10.24-18.75,17.49,0,9.13,7.56,15.59,13.39,19.37l12.6,7.88c9.92,6.14,19.69,15.28,19.69,30.25C430.46,582,417.39,593.76,396.91,593.76Z"/><path d="M557.73,531.69c0,4.25.47,4.25,5.2,4.25h10.72c6.45,0,11.49-.31,13.38-.94s3-1.42,3.94-5.52l1.42-6.3c.79-.94,3.46-.94,4.09,0,0,3.79-.63,10.08-.63,15.92,0,5.67.63,11.65.63,15.28-.63.94-3,.94-4.09,0l-1.58-6.15c-.63-2.84-2-5-5-6-2.2-.62-6.14-.78-12.12-.78H562.93c-4.73,0-5.2.16-5.2,4.25v21.9c0,16.54.32,18.9,9.61,19.69l5.36.47c.95.63.63,3.47-.32,3.94-9.29-.31-14.65-.47-21-.47-6.93,0-12.29.16-19.69.47-1-.47-1.26-3-.32-3.94l3.94-.47c9.14-1.1,9.46-3.15,9.46-19.69V510.9c0-16.54-.32-18.75-9.46-19.85l-2.52-.32c-.94-.63-.62-3.46.32-3.93,6.62.31,12,.47,18.27.47h29c10.08,0,19.22,0,21.26-.47,0,7.24.16,14.8.47,20.79-.47.94-2.67,1.42-3.77.47-1.26-7.09-3.16-12.76-11-15-3.47-.79-8.67-1-15.28-1h-9.61c-4.73,0-4.73.32-4.73,6.3Z"/><path d="M485.06,443.53a590.76,590.76,0,0,0-124.83,13.3v4.94a587.23,587.23,0,0,1,249.65,0v-4.94A590.66,590.66,0,0,0,485.06,443.53Z"/><rect x="482.87" y="386.69" width="5.12" height="60.16"/><path d="M496.06,311.05c0,11.37-9.58,20.6-9.58,20.6s-9.57-9.23-9.57-20.6,9.57-20.61,9.57-20.61S496.06,299.67,496.06,311.05Z"/><path d="M493.18,261.61c0,8-6.7,14.43-6.7,14.43s-6.7-6.46-6.7-14.43,6.7-14.42,6.7-14.42S493.18,253.65,493.18,261.61Z"/><path d="M468.29,334c3.44,10.84-2.9,22.53-2.9,22.53s-11.93-5.89-15.37-16.74,2.9-22.53,2.9-22.53S464.85,323.15,468.29,334Z"/><path d="M449.66,299.93c.7,10.22-7.34,19.09-7.34,19.09s-9.16-7.69-9.86-17.91S439.8,282,439.8,282,449,289.72,449.66,299.93Z"/><path d="M472.07,281.09c1.59,9.08-4.75,17.79-4.75,17.79s-8.94-6-10.54-15.09S461.54,266,461.54,266,470.47,272,472.07,281.09Z"/><path d="M501,280.74c-2,9,3.93,18,3.93,18s9.2-5.59,11.21-14.59-3.93-18-3.93-18S503,271.75,501,280.74Z"/><path d="M523.3,299.93c-.7,10.22,7.34,19.09,7.34,19.09s9.17-7.69,9.86-17.91S533.16,282,533.16,282,524,289.72,523.3,299.93Z"/><path d="M502.69,337.11c-3.44,10.85,2.9,22.54,2.9,22.54s11.92-5.9,15.37-16.75-2.91-22.53-2.91-22.53S506.13,326.27,502.69,337.11Z"/><path d="M496.13,367.49c0,12.64-10.64,22.89-10.64,22.89s-10.64-10.25-10.64-22.89,10.64-22.89,10.64-22.89S496.13,354.85,496.13,367.49Z"/><path d="M467.87,377.13c8.64,9.21,7.89,24,7.89,24s-14.77-.19-23.42-9.42-7.9-24-7.9-24S459.22,367.9,467.87,377.13Z"/><path d="M433.19,332.06c3.44,10.84-2.9,22.54-2.9,22.54s-11.92-5.9-15.36-16.74,2.9-22.54,2.9-22.54S429.76,321.21,433.19,332.06Z"/><path d="M432.77,372.08c8.65,9.22,7.89,24,7.89,24s-14.77-.2-23.42-9.42-7.89-24-7.89-24S424.13,362.85,432.77,372.08Z"/><path d="M503.11,377.13c-8.64,9.21-7.89,24-7.89,24s14.78-.19,23.42-9.42,7.9-24,7.9-24S511.76,367.9,503.11,377.13Z"/><path d="M536.92,337.11c-3.45,10.85,2.89,22.54,2.89,22.54s11.93-5.9,15.36-16.75-2.89-22.53-2.89-22.53S540.35,326.27,536.92,337.11Z"/><path d="M537.34,377.13c-8.66,9.21-7.9,24-7.9,24s14.78-.19,23.42-9.42,7.89-24,7.89-24S546,367.9,537.34,377.13Z"/><path d="M449.78,410.85l3.56-5.1s.18.13.62.4h0c.43.29,1.08.69,1.91,1.19h0a74.71,74.71,0,0,0,7.06,3.62h0c5.91,2.65,13.91,5.24,22.12,5.23h0c14.38.06,28.09-8.05,31.1-10h0c.43-.27.61-.4.61-.4h0l3.56,5.1c-.26.12-16.29,11.49-35.28,11.56h0c-19-.07-35-11.44-35.27-11.56Z"/><path d="M368,635.09h7.53l7.4,19.62H383l7.53-19.62h7.06L385.26,665H380Z"/><path d="M402.41,635.09h20.35v6.09H409v5.58h13v6.09H409v6.09h14.51V665H402.41Z"/><path d="M430.35,635.09h9L452,655.9h.09V635.09h6.6V665H450.1L437,643.72h-.09V665h-6.59Z"/><path d="M472.08,640.92h-8.55v-5.83h23.69v5.83h-8.55V665h-6.59Z"/><path d="M517.25,653.49c0,7.06-4.31,12.31-12.6,12.31S492,660.55,492,653.49v-18.4h6.6v18.14c0,3.68,2.54,6.47,6,6.47s6-2.79,6-6.47V635.09h6.59Z"/><path d="M524.88,635.09h11.59c6.14,0,11.3,2.11,11.3,9.09,0,4.19-2.25,7.45-6.48,8.21L548.91,665H541l-6.26-12h-3.26v12h-6.6Zm6.6,12.39h3.89c2.41,0,5.54-.09,5.54-3.34,0-3-2.7-3.47-5.11-3.47h-4.32Z"/><path d="M554.16,635.09h20.35v6.09H560.76v5.58h13v6.09h-13v6.09h14.51V665H554.16Z"/><path d="M597,642.4a6.41,6.41,0,0,0-4.78-2c-1.86,0-4.44.84-4.44,3.08,0,5.46,13.78,2,13.78,12.44,0,6.68-5.37,9.86-11.54,9.86A14.24,14.24,0,0,1,579.91,662l4.7-5.16a7.31,7.31,0,0,0,5.75,2.83c2.15,0,4.57-1,4.57-3.13,0-5.5-14-2.53-14-12.52,0-6.38,5.54-9.72,11.42-9.72a13.49,13.49,0,0,1,9.18,3.13Z"/></svg>