<?xml version="1.0" encoding="utf-8"?>
<!-- Generator: Adobe Illustrator 25.0.1, SVG Export Plug-In . SVG Version: 6.00 Build 0)  -->
<svg version="1.1" id="Layer_1" xmlns="http://www.w3.org/2000/svg" xmlns:xlink="http://www.w3.org/1999/xlink" x="0px" y="0px"
	 viewBox="0 0 15.4 15.3" style="enable-background:new 0 0 15.4 15.3;" xml:space="preserve">
<style type="text/css">
	.st0{fill:none;}
	.st1{filter:url(#Adobe_OpacityMaskFilter);}
	.st2{fill:#FFFFFF;}
	.st3{mask:url(#mask-2_1_);}
	.st4{fill-rule:evenodd;clip-rule:evenodd;}
</style>
<g>
	<g>
		<rect id="rect-1_1_" class="st0" width="15.4" height="15.3"/>
	</g>
	<defs>
		<filter id="Adobe_OpacityMaskFilter" filterUnits="userSpaceOnUse" x="0" y="0" width="15.4" height="15.3">
			<feColorMatrix  type="matrix" values="1 0 0 0 0  0 1 0 0 0  0 0 1 0 0  0 0 0 1 0"/>
		</filter>
	</defs>
	<mask maskUnits="userSpaceOnUse" x="0" y="0" width="15.4" height="15.3" id="mask-2_1_">
		<rect class="st1" width="15.4" height="15.3"/>
		<g>
			<rect id="rect-1_2_" class="st2" width="15.4" height="15.3"/>
		</g>
	</mask>
	<g class="st3">
		<path class="st4" d="M1.7,15.3L0,13.6L11.3,2.4L5,2.3c-0.8,0-2.4,0-4.5-0.1L2.8,0c0.9,0,2.9,0,6,0.1c3.1,0.1,5.2,0.1,6.3,0.1
			c0,1.1,0,3.2,0.1,6.3s0.1,5.1,0.1,6.1l-2.3,2.3c0-1.1,0-2.6,0-4.5L13,4.1C13,4.1,1.7,15.3,1.7,15.3z"/>
	</g>
</g>
</svg>
