<svg id="Layer_1" data-name="Layer 1" xmlns="http://www.w3.org/2000/svg" viewBox="0 0 720 359.81">
  <defs>
    <style>
      .cls-1 {
        fill: #fff;
      }
    </style>
  </defs>
  <g>
    <g>
      <g>
        <path class="cls-1" d="M605.28,234.57c0,.08,0,.16,0,.24h0v-.24Z"/>
        <circle class="cls-1" cx="526.36" cy="42.18" r="33.75" transform="translate(124.34 384.55) rotate(-45)"/>
        <path class="cls-1" d="M504.63,234.14c0,.13,0,.26,0,.39v-.39Z"/>
      </g>
      <path class="cls-1" d="M686.5,257.85h0a44.15,44.15,0,0,1-8.84-1.68l-.55-.19a22.51,22.51,0,0,1-16-21.54v-5.67h0V10.94h0a2.49,2.49,0,0,0-2.5-2.49h0l-85.22,4.39h0a6.17,6.17,0,0,0,0,12.33h0l.38,0,.56,0A30.89,30.89,0,0,1,605.2,56.1s0,.09,0,.14h.14V234.83h0a22.58,22.58,0,0,1-45.15,0h0v-.06c0-.06,0-.13,0-.19s0-.12,0-.18V103h0v0a2.5,2.5,0,0,0-2.5-2.5h0l-82.86,4.4v0a6.17,6.17,0,0,0,0,12.32c1.44.14,2.95.38,4.52.68v0a30.87,30.87,0,0,1,25.37,30.37h.06v86.32a22.59,22.59,0,1,1-45.18,0s0-.09,0-.13v-79.4q0-25.7-13.77-41.43T404.66,97.9a78.42,78.42,0,0,0-21.7,2.87,61,61,0,0,0-16.3,6.93,95.88,95.88,0,0,0-12.58,9.39L342.63,127.4h0a.45.45,0,0,1-.3.12.47.47,0,0,1-.47-.46V11s0,0,0-.05v-.15h0a2.49,2.49,0,0,0-2.48-2.33h-.05l-84.17,4.39h0a6.18,6.18,0,1,0,0,12.35h0l.21,0h0A30.88,30.88,0,0,1,286,56.1s0,.09,0,.14H286v176.1h0V235a22.5,22.5,0,0,1-19.44,22.29v0c-1.92.21-3.87.39-5.87.54v.06a6.14,6.14,0,0,0,0,12.23v.06h98v0a6.17,6.17,0,0,0,0-12.33h-2.38a14.44,14.44,0,0,1-14.43-14.17h0v-6.58c0-.66,0-1.33,0-2V200.71h0V158.79h0s0-.06,0-.09a30.95,30.95,0,0,1,61.89,0c0,.18,0,.34,0,.52,0,.35,0,.7,0,1.07V232.7h0v2.65h0v8.31h0a14.44,14.44,0,0,1-14.44,14.17h-1.56a6.17,6.17,0,0,0,0,12.33v0H686.5a6.18,6.18,0,0,0,0-12.35Z"/>
    </g>
    <path class="cls-1" d="M243.69,110.59Q221.78,83.8,184,83.79a69.33,69.33,0,0,0-29.14,6.77,90.54,90.54,0,0,0-26.76,19h0a.88.88,0,0,1-.58.23.86.86,0,0,1-.86-.81h0V88.81h0a2.3,2.3,0,0,0-2.3-2.3h-.1l-2.82.15L34.59,91.29v0a6.65,6.65,0,0,0,0,13.29v0c1.28.12,2.58.29,3.88.49a31.67,31.67,0,0,1,27.77,31.43c0,.15,0,.3,0,.45v169h0a31.65,31.65,0,0,1-28.95,31.53c-1.09.11-2.12.21-3.06.28h0a6.76,6.76,0,0,0,0,13.52H166.53a6.77,6.77,0,1,0,0-13.54h-.05q-2.82-.17-6.28-.61v0a39.78,39.78,0,0,1-33.6-38.8h0V263.6a1,1,0,0,1,1-1,.93.93,0,0,1,.44.11h0a65.76,65.76,0,0,0,18.08,8.69q11,3.56,28.5,3.56,39.47,0,65.22-27.62t25.76-66.21Q265.62,137.39,243.69,110.59Zm-51.5,121.9-.18.43c-.1.25-.2.51-.3.75h-.05a34.07,34.07,0,0,1-65.06-14.17V148.91h0a34.08,34.08,0,0,1,65.63-12.82,76.12,76.12,0,0,1,5.71,19.5,165.56,165.56,0,0,1,2,26.25Q200,213.67,192.19,232.49Z"/>
  </g>
</svg>
