<svg xmlns="http://www.w3.org/2000/svg">
  <defs>
    <symbol id="logo" viewBox="0 0 136 36"><path d="M28.006 8.48c-.061.511-.114.908-.158 1.315l-.371 3.363a432.323 432.323 0 01-.389 3.364l-.37 3.364c-.098.883-.204 1.766-.31 2.649-.026.265-.053.538-.097.794-.061.362-.23.504-.609.521-.194.01-.397 0-.591 0h-2.455c-.141 0-.282-.009-.424-.035-.23-.044-.344-.177-.353-.415a3.84 3.84 0 01.036-.636c.132-1.28.273-2.551.415-3.831l.476-4.291.371-3.54c.159-1.431.318-2.861.468-4.292l.37-3.54c.08-.742.16-1.492.248-2.234.009-.114.035-.22.08-.326a.473.473 0 01.37-.318c.124-.027.247-.044.38-.044h3.77c.07 0 .141 0 .212.008.194.018.353.106.432.292.062.141.124.282.177.432 1.792 4.989 3.585 9.942 5.377 14.895.053.159.123.309.185.468.16-.036.16-.168.186-.265l1.297-3.629c1.334-3.734 2.658-7.469 3.991-11.204.08-.23.177-.45.274-.662A.457.457 0 0141.39.41c.097-.008.194-.008.3-.008h3.726c.124 0 .256.008.38.026.291.035.45.22.503.495.035.211.062.423.08.626.185 1.73.361 3.452.547 5.183l.503 4.759c.168 1.589.336 3.17.512 4.759.194 1.854.398 3.708.592 5.562.044.45.106.9.15 1.35.053.566-.088.725-.645.733-1.033.01-2.066 0-3.09 0-.114 0-.23-.008-.335-.044-.265-.088-.353-.318-.389-.565-.044-.309-.07-.618-.106-.927-.14-1.28-.273-2.551-.415-3.832l-.37-3.54c-.124-1.183-.265-2.357-.389-3.54-.097-.9-.185-1.801-.282-2.693-.01-.053-.018-.106-.027-.16-.159.01-.141.133-.177.213-.388 1.033-.768 2.066-1.147 3.099-1.316 3.558-2.64 7.116-3.956 10.683a5.093 5.093 0 01-.22.503.565.565 0 01-.548.335h-2.455c-.096 0-.193 0-.3-.008a.446.446 0 01-.405-.265 6.096 6.096 0 01-.212-.503c-1.66-4.556-3.302-9.085-4.953-13.624-.062-.158-.098-.317-.257-.547zM91.946 14.704c.088.194.159.344.238.494 1.307 2.587 2.605 5.165 3.912 7.752.053.115.114.23.158.345.098.273-.035.512-.326.573-.106.027-.22.027-.336.027h-3.646c-.088 0-.168 0-.256-.009a.74.74 0 01-.592-.362c-.07-.123-.14-.247-.203-.37-1.165-2.34-2.322-4.68-3.487-7.02-.053-.114-.115-.22-.168-.326-.353-.053-4.379-.053-4.759-.01-.097.142-.053.301-.053.451v6.693c0 .14 0 .282-.008.423-.027.292-.16.433-.442.495-.106.026-.22.026-.335.026h-3.055c-.124 0-.256-.017-.38-.035-.22-.044-.344-.194-.38-.406-.017-.124-.017-.256-.017-.38v-1.483V1.496c0-.159-.009-.309.009-.468.026-.415.212-.583.609-.6h9.959c.856 0 1.686.115 2.49.415 1.871.697 3.24 1.96 4.15 3.734a7.689 7.689 0 01.838 4.22c-.088 1.06-.433 2.04-.971 2.95a8.242 8.242 0 01-2.622 2.728c-.089.061-.186.14-.327.23zm-9.456-3.152c.106.009.186.027.274.027h4.697c.335 0 .67-.036 1.006-.115 1.236-.3 2.631-1.342 2.72-3.179.062-1.35-.46-2.419-1.607-3.151a3.73 3.73 0 00-2.04-.61c-1.607-.008-3.213 0-4.83 0-.079 0-.158.027-.229.036-.053.406-.053 6.604.01 6.992zM67.383 19.534h-9.668c-.053.123-.106.229-.15.344-.415 1.068-.839 2.128-1.254 3.196a6.09 6.09 0 01-.15.353.77.77 0 01-.662.46c-.097.008-.194.008-.3.008h-3.055a2.68 2.68 0 01-.46-.035c-.158-.036-.246-.142-.229-.31.018-.167.071-.326.133-.485.362-.918.733-1.836 1.103-2.755 2.534-6.312 5.068-12.625 7.611-18.938.062-.159.124-.317.212-.459.168-.309.424-.468.794-.468.848.01 1.696.01 2.543 0 .406 0 .671.186.812.557.212.512.415 1.024.618 1.527 2.755 6.851 5.5 13.702 8.255 20.545.045.106.089.212.124.318.062.22-.035.406-.256.459-.15.035-.309.044-.459.044H69.722c-.38 0-.644-.177-.794-.53-.053-.115-.097-.238-.141-.353-.407-1.006-.804-2.022-1.21-3.028-.062-.15-.124-.292-.194-.45zm-4.874-12.9c-1.086 2.87-2.163 5.73-3.24 8.6-.018.053-.018.106-.026.159.044.017.061.044.088.044.088.009.167.009.256.009 2.048 0 4.096-.01 6.145-.01.017 0 .026-.008.044-.008a.41.41 0 00.044-.053c-.009-.044-.018-.115-.035-.177-1.05-2.825-2.11-5.659-3.17-8.484-.018-.044-.053-.053-.106-.08zM13.253 10.775c.795.344 1.545.768 2.216 1.315.256.203.495.424.716.654.882.927 1.448 2.004 1.598 3.293.176 1.536-.062 2.984-.901 4.308a7.233 7.233 0 01-1.66 1.854c-.997.795-2.128 1.325-3.364 1.643-2.613.662-5.147.432-7.593-.724-1.421-.671-2.683-1.554-3.76-2.702a3.633 3.633 0 01-.39-.503c-.176-.283-.15-.468.072-.733.07-.088.15-.168.238-.247.6-.592 1.218-1.183 1.81-1.784.432-.441.688-.397 1.139-.062.15.106.273.248.406.371.6.565 1.227 1.086 1.933 1.51.698.415 1.44.724 2.243.839 1.033.159 2.057.115 3.028-.318.442-.194.848-.46 1.175-.812.52-.565.794-1.228.75-2.005a1.838 1.838 0 00-.477-1.147 4.439 4.439 0 00-1.06-.839c-.529-.3-1.094-.512-1.686-.689-.768-.23-1.545-.441-2.313-.688a17.243 17.243 0 01-3.099-1.351 11.962 11.962 0 01-1.483-.98C1.476 9.936.77 8.576.681 6.88c-.088-1.8.494-3.328 1.783-4.582.724-.715 1.59-1.218 2.534-1.58A10.828 10.828 0 018.344.02c.407-.018.822-.026 1.228-.018 1.156.027 2.26.31 3.31.804a12.959 12.959 0 013.514 2.41c.089.088.186.177.256.283.23.309.239.618.018.936-.044.07-.106.132-.159.194-.538.583-1.077 1.156-1.615 1.74a1.2 1.2 0 01-.15.15c-.204.167-.433.22-.672.088a4.794 4.794 0 01-.565-.371c-.291-.221-.574-.46-.865-.68a8.65 8.65 0 00-1.942-1.113c-.75-.3-1.528-.397-2.322-.3-.406.053-.812.08-1.21.212-.362.124-.706.283-.997.539-.433.38-.69.847-.716 1.439-.008.141-.008.282-.008.424.008.38.15.715.388 1.006.22.265.486.468.786.636.459.256.936.459 1.43.627.574.185 1.157.37 1.74.547.856.238 3.328 1.139 3.46 1.2zM105.225 4.691c-.203-.008-.353-.017-.504-.017h-5.13c-.123 0-.255.009-.379-.01-.265-.034-.406-.167-.468-.423a1.841 1.841 0 01-.035-.38V1.195c0-.115.009-.23.026-.335.053-.265.195-.389.46-.424.15-.018.309-.009.468-.009h15.98c.141 0 .282 0 .424.009.282.035.432.176.485.45.018.08.018.168.018.256 0 .918-.009 1.837 0 2.755.009.574-.23.777-.795.777-1.792-.018-3.584-.01-5.377-.01h-.485c-.018.107-.044.186-.044.266-.009.141 0 .282 0 .424V22.94c0 .168 0 .335-.027.503-.035.238-.176.38-.415.415a1.627 1.627 0 01-.291.026h-3.134c-.486 0-.786-.14-.76-.768v-.335-17.5c-.017-.167-.017-.352-.017-.59zM87.116 30.445v2.075c0 .574-.115 1.121-.38 1.633a3.42 3.42 0 01-3.487 1.82c-1.316-.16-2.499-1.184-2.834-2.526a4.175 4.175 0 01-.115-.883c-.009-1.5-.009-2.993-.009-4.494v-.088c.009-.318.08-.388.406-.397.3-.01.592-.01.892 0 .265.009.344.097.362.37.009.115 0 .23 0 .336v4.194c0 .273.018.538.106.794.247.707.856 1.201 1.677 1.192.76-.008 1.395-.512 1.625-1.262.088-.274.097-.556.097-.839v-4.194c0-.114 0-.23.009-.335.009-.15.088-.239.238-.247.38-.01.76-.01 1.14.008.15.01.229.098.237.248.01.114.01.23.01.335.026.76.026 1.51.026 2.26zM126.847 3.332c0 .733-.009 1.466 0 2.199.027 1.262-.839 2.816-2.551 3.249-2.225.565-4.238-1.14-4.247-3.232-.009-1.527 0-3.046 0-4.573 0-.442.044-.486.477-.494.264 0 .538-.01.803 0 .274.008.344.079.353.37.009.256 0 .512 0 .76v3.646c0 .22.018.45.062.671.159.821.839 1.413 1.651 1.44.812.026 1.527-.522 1.73-1.343.053-.23.08-.477.08-.715.009-1.386 0-2.763 0-4.15 0-.644-.071-.697.706-.688.186 0 .371-.01.548 0 .3.017.37.08.37.388.009.75 0 1.492 0 2.243.018.088.018.159.018.23zM90.453 34.357c-.088.22-.168.424-.247.635-.07.186-.15.362-.22.548-.08.238-.23.335-.477.327-.31-.01-.618 0-.936-.01-.097 0-.186-.026-.31-.052.027-.115.036-.212.063-.3l.847-2.12c.706-1.765 1.421-3.54 2.128-5.306.194-.494.203-.494.742-.494h.547c.159 0 .265.08.326.23.115.29.23.573.345.865.892 2.216 1.783 4.423 2.666 6.64.044.114.088.237.115.361.018.08-.035.133-.106.159-.035.018-.08.018-.124.018h-1.06c-.193 0-.317-.08-.387-.265-.133-.345-.274-.68-.407-1.024-.035-.08-.07-.15-.106-.212-.326-.036-2.843-.044-3.399 0zm.61-1.466h1.809c.133-.009.274.027.389-.035.009-.053.017-.089.009-.106a1.056 1.056 0 00-.044-.159c-.327-.883-.663-1.766-.99-2.649-.008-.009-.017-.026-.026-.035-.009-.009-.026 0-.053 0-.017.026-.053.053-.07.088-.345.91-.69 1.819-1.025 2.72-.008.035 0 .079 0 .176zM74.933 27.453c.609-.018 1.121.088 1.607.344.406.212.777.46 1.094.786.186.186.195.318.018.512-.177.203-.362.398-.547.592-.124.123-.23.132-.38.044-.097-.062-.176-.141-.274-.203-.185-.133-.37-.265-.556-.38-.406-.247-.847-.282-1.307-.203-.15.027-.3.08-.432.16-.433.246-.574.917-.027 1.253.168.106.353.185.53.256.265.097.539.168.803.256.336.115.671.23.998.353.318.124.61.291.874.503 1.016.804.971 2.084.495 2.86a2.627 2.627 0 01-1.192 1.043c-.839.388-1.713.45-2.605.212a4.153 4.153 0 01-1.916-1.122c-.07-.07-.141-.141-.194-.22-.07-.106-.07-.221.018-.31.247-.255.494-.503.75-.741.088-.088.212-.08.318 0 .115.08.212.185.318.274.344.309.715.556 1.165.662.389.097.786.097 1.166-.044.256-.098.477-.248.618-.495.167-.291.23-.741-.186-1.06a2.466 2.466 0 00-.794-.388c-.362-.114-.733-.22-1.086-.344a5.457 5.457 0 01-1.236-.636c-1.183-.786-1.148-2.507-.053-3.337.477-.362 1.015-.539 1.598-.61.168-.008.318-.008.415-.017zM108.508 27.444a2.9 2.9 0 011.271.274c.415.194.795.432 1.131.733.07.061.15.132.211.211.098.115.115.239.018.345-.212.247-.433.476-.662.715-.08.08-.185.08-.274.035-.097-.053-.185-.123-.282-.194-.195-.133-.389-.283-.592-.406-.406-.247-.847-.3-1.307-.22a1.4 1.4 0 00-.512.193c-.388.248-.512.883 0 1.21.177.115.371.203.574.274.248.097.512.159.768.247.345.115.698.23 1.033.362.327.123.636.309.901.538a2.182 2.182 0 01.459 2.8c-.318.547-.795.908-1.368 1.147a3.68 3.68 0 01-2.199.185c-.812-.168-1.501-.556-2.101-1.121a2.372 2.372 0 01-.203-.22c-.124-.16-.124-.266.017-.407.212-.22.433-.441.663-.653.141-.133.265-.141.415-.018.088.07.159.16.256.22.229.169.441.345.688.486.406.239.848.292 1.307.239.247-.027.459-.124.662-.256.141-.097.256-.22.336-.38.185-.362.114-.724-.195-.989-.229-.194-.503-.309-.785-.397-.283-.088-.574-.159-.848-.256-.344-.124-.68-.265-1.015-.424a3.89 3.89 0 01-.574-.362c-1.042-.741-.998-2.26-.239-3.028.309-.31.663-.521 1.069-.671.379-.133.759-.194 1.377-.212zM131.278 5.804c-.009.177-.018.31-.018.45v2.208c-.008.23-.061.282-.273.282-.371.01-.733 0-1.104 0-.053 0-.106-.026-.141-.035-.106-.106-.097-.22-.097-.335v-.848-6.48c0-.124 0-.256.017-.38.009-.088.071-.15.168-.168.08-.009.168-.017.256-.017.989 0 1.978.008 2.967 0 1.439-.01 2.339 1.05 2.569 2.048.388 1.766-.954 3.258-2.499 3.24h-1.562a2.257 2.257 0 01-.283.035zm.027-3.831c-.009.026-.036.07-.036.106 0 .688-.009 1.386 0 2.074 0 .053.018.106.027.15.044.027.062.053.088.053.539 0 1.077.027 1.607-.008.485-.027.803-.327.962-.777.247-.68-.132-1.572-1.077-1.643-.494-.035-.989 0-1.483.01-.027-.01-.053.017-.088.035zM61.61 33.456c.15-.141.167-.282.22-.415l1.616-4.37c.105-.291.22-.583.326-.874.053-.133.15-.212.292-.212.432 0 .874.009 1.306.018.027 0 .044.026.07.044.08.106.027.212-.017.318l-.635 1.615c-.76 1.934-1.519 3.858-2.278 5.792-.212.547-.239.495-.742.495h-.547c-.16 0-.274-.071-.336-.212-.035-.089-.07-.186-.106-.274-.953-2.42-1.898-4.83-2.843-7.249-.053-.14-.14-.273-.106-.468.053-.017.115-.061.177-.07.397-.009.795-.009 1.183-.009.177 0 .283.097.344.256.106.309.221.61.336.91.53 1.438 1.068 2.886 1.598 4.326.044.123.08.23.141.38zM99.804 34.339H102.797c.397 0 .441.053.45.433 0 .264.009.538-.009.803-.009.203-.088.274-.291.282-.089.01-.168 0-.256 0h-4.062c-.503 0-.52-.026-.53-.52V28.14v-.212c.018-.256.089-.335.327-.344.336-.01.68-.01 1.016 0 .212.009.282.08.3.282.009.124.009.256.009.38v5.544c0 .168-.027.336.053.548zM67.727 27.638c.38-.089.795-.027 1.192-.044.115-.01.23-.01.335.114.01.08.027.195.027.3v7.408c0 .406-.027.433-.424.442-.3 0-.591.008-.892 0-.264-.01-.309-.062-.326-.336v-.256-7.116c.008-.159-.027-.327.088-.512z"/></symbol>
    <symbol id="dr" viewBox="0 0 32 32"><path d="M12.4 8.3c-1.2.6-2.2 1.4-3 2.4-.8 1.1-1.4 2.2-1.7 3.5 2.6 0 5.3-.3 7.9-1-1.1-1.8-2.2-3.5-3.2-4.9zM13.1 17.9c.6-.4 1.2-.8 1.7-1.1.5-.3 1-.5 1.3-.6l.5-.2h.2c.1 0 .1 0 .2-.1-.2-.4-.4-.9-.7-1.4-2.7.8-5.6 1.2-8.8 1.2v.3c0 1.1.2 2.1.6 3.1.4 1 .9 1.9 1.6 2.6.4-.8 1-1.5 1.6-2.2.6-.6 1.2-1.2 1.8-1.6zM18.9 11.9c.5-.3.9-.6 1.3-.8.3-.2.6-.5.9-.7l.5-.5.2-.2C20 8.2 18.2 7.5 16 7.5c-.7 0-1.3.1-2 .2 1.1 1.5 2.2 3.1 3.2 5 .6-.2 1.1-.5 1.7-.8zM22.6 10.6c-.1.1-.2.2-.2.3l-.6.6c-.3.3-.6.5-.9.8-.3.2-.8.5-1.3.8-.5.3-1.1.6-1.7.8.2.5.4.9.6 1.2 0 .1 0 .1.1.2 0 .1.1.2.1.2.3 0 .6-.1 1-.1h1.9c.3 0 .6 0 .8.1.3 0 .5 0 .7.1.2 0 .4.1.6.1.2 0 .3.1.5.1.1 0 .2 0 .3.1h.1c-.1-2-.7-3.8-2-5.3zM17.5 17.4c-.2.1-.4.1-.6.2-.2.1-.7.3-1.3.6-.6.3-1.2.7-1.8 1.1-.5.4-1.1.9-1.7 1.5-.6.6-1 1.3-1.3 1.9l-.2-.1c1.6 1.3 3.4 2 5.4 2 1.1 0 2.3-.2 3.3-.7-.3-2.1-.9-4.3-1.8-6.5z"/><path d="M16 0C7.2 0 0 7.2 0 16s7.2 16 16 16 16-7.2 16-16S24.8 0 16 0zm8.7 21c-.9 1.5-2.1 2.7-3.6 3.6-1.5.9-3.2 1.3-5 1.3-1.8 0-3.5-.4-5-1.3S8.4 22.5 7.5 21C6.4 19.5 6 17.8 6 16c0-1.8.4-3.5 1.3-5 .9-1.6 2.1-2.8 3.7-3.7 1.5-.9 3.2-1.3 5-1.3 1.8 0 3.5.4 5 1.3s2.7 2.1 3.6 3.6c.9 1.5 1.3 3.2 1.3 5 .1 1.9-.3 3.6-1.2 5.1z"/><path d="M19.1 17c.8 2.1 1.3 4.1 1.7 6.1 1-.7 1.8-1.5 2.4-2.5.6-1 1.1-2.1 1.2-3.3-1.8-.5-3.6-.6-5.3-.3z"/></symbol>
    <symbol id="be" viewBox="0 0 32 32"><path class="st0" d="M13.9 13.3c0-1.2-.8-1.2-.8-1.2H9.7v2.6h3.2c.6 0 1-.2 1-1.4zM13.1 16.5H9.7v3.1H13c.5 0 1.4-.2 1.4-1.5 0-1.6-1.3-1.6-1.3-1.6zM21.9 14.7c-1.8 0-2.1 1.8-2.1 1.8h3.9s0-1.8-1.8-1.8z"/><path class="st0" d="M16 0C7.2 0 0 7.2 0 16s7.2 16 16 16 16-7.2 16-16S24.8 0 16 0zm3.3 10.7h4.8v1.4h-4.8v-1.4zm-2.5 7.6c0 3.6-3.7 3.5-3.7 3.5H7V10h6.1c1.9 0 3.3 1 3.3 3.1s-1.8 2.2-1.8 2.2c2.4.1 2.2 3 2.2 3zm9.1-.2h-6.1c0 2.2 2.1 2 2.1 2 2 0 1.9-1.3 1.9-1.3h2.1c0 3.4-4 3.1-4 3.1-4.8 0-4.5-4.5-4.5-4.5s0-4.5 4.5-4.5c4.7.1 4 5.2 4 5.2z"/></symbol>
    <symbol id="fb" viewBox="0 0 32 32"><path d="M16 .1C7.2.1 0 7.3 0 16.1 0 24 5.8 30.6 13.3 31.8V19.4H9.5v-4.5h3.9v-3.3c0-3.8 2.3-5.9 5.7-5.9 1.6 0 3 .1 3.4.2v4h-2.4c-1.9 0-2.2.9-2.2 2.2V15h4.4l-.6 4.5h-3.8V32c8-1 14.1-7.8 14.1-15.9 0-8.9-7.2-16-16-16z"/></symbol>
    <symbol id="ig" viewBox="0 0 32 32"><path d="M16 0c8.8 0 16 7.2 16 16s-7.2 16-16 16S0 24.8 0 16 7.2 0 16 0zm-3.7 7.2h7.5c2.8 0 5.1 2.3 5.1 5v7.5c0 2.8-2.3 5-5.1 5h-7.5c-2.8 0-5.1-2.3-5.1-5v-7.5c0-2.7 2.3-5 5.1-5zm3.7 4.1c2.7 0 5 2.2 5 5s-2.2 5-5 5-5-2.2-5-5 2.2-5 5-5zm0 1.6c1.8 0 3.3 1.5 3.3 3.3s-1.5 3.3-3.3 3.3c-1.8 0-3.3-1.5-3.3-3.3s1.5-3.3 3.3-3.3zm4.7-2.3c.4 0 .8.4.8.8s-.4.8-.8.8-.8-.4-.8-.8c0-.5.4-.8.8-.8zm-7.8-1.9h6.3c2.4 0 4.3 1.9 4.3 4.3v6.3c0 2.3-1.9 4.3-4.3 4.3h-6.3c-2.4 0-4.3-1.9-4.3-4.3V13c0-2.4 1.9-4.3 4.3-4.3z" fill-rule="evenodd" clip-rule="evenodd"/></symbol>
    <symbol id="in" viewBox="0 0 32 32"><path d="M16 0C7.2 0 0 7.2 0 16s7.2 16 16 16 16-7.2 16-16S24.8 0 16 0zm-4.7 22.8H8V12.3h3.3v10.5zM9.7 10.9c-1 0-1.7-.8-1.7-1.8s.7-1.7 1.7-1.7c.9 0 1.7.8 1.7 1.7-.1 1-.8 1.8-1.7 1.8zm13.7 11.9h-3.2v-5.1c0-1.2 0-2.8-1.7-2.8s-1.9 1.3-1.9 2.7v5.2h-3.2V12.3h3.1v1.4c.4-.8 1.5-1.7 3-1.7 3.3 0 3.9 2.2 3.9 5v5.8z"/></symbol>
    <symbol id="tw" viewBox="0 0 32 32"><path d="M16 0C7.2 0 0 7.2 0 16s7.2 16 16 16 16-7.2 16-16S24.8 0 16 0zm7.2 12.6c.2 5.2-3.6 11-10.5 11-2.1 0-4-.6-5.7-1.7 2 .2 3.9-.3 5.5-1.5-1.6 0-3-1.1-3.5-2.6.6.1 1.1.1 1.7-.1-1.8-.4-3-2-3-3.7.5.3 1.1.4 1.7.5-1.6-1.1-2.1-3.3-1.1-4.9 1.8 2.2 4.5 3.7 7.6 3.9-.6-2.3 1.2-4.5 3.6-4.5 1.1 0 2 .4 2.7 1.2.8-.2 1.6-.5 2.3-.9-.3.9-.9 1.6-1.6 2 .7-.1 1.5-.3 2.1-.6-.5.8-1.1 1.4-1.8 1.9z"/></symbol>
    <symbol id="vi" viewBox="0 0 32 32"><path d="M16 0C7.2 0 0 7.2 0 16s7.2 16 16 16 16-7.2 16-16S24.8 0 16 0zm6.6 14.3c-2.8 7.1-6.7 9.6-6.7 9.6-2.6 1.1-3.8-3.9-3.8-3.9L11 15.3c-.4-3-2.1-1.5-2.1-1.5l-1-.7c2.8-3.5 4.3-4 4.3-4 2.5 0 2.4 3.7 2.4 3.7.3 5.7 1.4 5.6 1.4 5.6 1 0 2.1-3.1 2.1-3.1 1.1-3-.6-2.3-.6-2.3-1 .1-.7-1-.7-1 .8-3.4 4.1-3 4.1-3 3.3 0 1.7 5.3 1.7 5.3z"/></symbol>
  </defs>
</svg>
